STARTFONT 2.1
FONT -FontForge-Frutiger LT 55 Roman-Book-R-Normal--64-610-75-75-P-347-ISO8859-1
SIZE 61 75 75
FONTBOUNDINGBOX 76 76 -11 -16
COMMENT "Generated by fontforge, http://fontforge.sourceforge.net"
COMMENT "Part of the digitally encoded machine readable outline data for producing the Typefaces provided is copyrighted (c) 1988, 1990, 1994, 2001, 2002, 2003, Linotype Library GmbH, www.linotype.com. All rights reserved. This software is the property of Linotype Library GmbH, and may not be reproduced, used, displayed, modified, disclosed or transferred Library GmbH. Copyright (c) 1988, 1990, 1994, 2001, 2002, 2003, Adobe Systems Incorporated. All rights reserved."
STARTPROPERTIES 40
FOUNDRY "FontForge"
FAMILY_NAME "Frutiger LT 55 Roman"
WEIGHT_NAME "Book"
SLANT "R"
SETWIDTH_NAME "Normal"
ADD_STYLE_NAME ""
PIXEL_SIZE 64
POINT_SIZE 610
RESOLUTION_X 75
RESOLUTION_Y 75
SPACING "P"
AVERAGE_WIDTH 347
CHARSET_REGISTRY "ISO8859"
CHARSET_ENCODING "1"
FONTNAME_REGISTRY ""
CHARSET_COLLECTIONS "ISOLatin1Encoding"
FONT_NAME "FrutigerLT-Roman"
FACE_NAME "Frutiger LT 55 Roman"
COPYRIGHT "Part of the digitally encoded machine readable outline data for producing the Typefaces provided is copyrighted (c) 1988, 1990, 1994, 2001, 2002, 2003, Linotype Library GmbH, www.linotype.com. All rights reserved. This software is the property of Linotype Library GmbH, and may not be reproduced, used, displayed, modified, disclosed or transferred Library GmbH. Copyright (c) 1988, 1990, 1994, 2001, 2002, 2003, Adobe Systems Incorporated. All rights reserved."
FONT_VERSION "6.04"
FONT_ASCENT 51
FONT_DESCENT 13
UNDERLINE_POSITION -8
UNDERLINE_THICKNESS 4
X_HEIGHT 32
CAP_HEIGHT 44
RAW_ASCENT 800
RAW_DESCENT 200
NORM_SPACE 18
RELATIVE_WEIGHT 40
RELATIVE_SETWIDTH 50
SUPERSCRIPT_X 0
SUPERSCRIPT_Y 18
SUPERSCRIPT_SIZE 13
SUBSCRIPT_X 0
SUBSCRIPT_Y 18
SUBSCRIPT_SIZE 13
FIGURE_WIDTH 36
AVG_LOWERCASE_WIDTH 343
AVG_UPPERCASE_WIDTH 414
ENDPROPERTIES
CHARS 232
STARTCHAR space
ENCODING 32
SWIDTH 278 0
DWIDTH 18 0
BBX 1 1 0 0
BITMAP
00
ENDCHAR
STARTCHAR exclam
ENCODING 33
SWIDTH 389 0
DWIDTH 25 0
BBX 7 45 9 0
BITMAP
FE
FE
FE
FE
FE
FE
FE
FE
FE
FE
FE
FE
FE
FE
FE
FE
FE
FE
FE
7E
7E
7E
7E
7E
7E
7E
7E
7C
7C
7C
7C
7C
00
00
00
00
00
00
FE
FE
FE
FE
FE
FE
FE
ENDCHAR
STARTCHAR quotedbl
ENCODING 34
SWIDTH 556 0
DWIDTH 36 0
BBX 16 16 10 29
BITMAP
FC3F
FC3F
FC3F
FC3F
FC3F
FC3F
FC3F
FC3F
FC3F
FC3F
FC3F
FC3F
FC3F
FC3F
FC3F
FC3F
ENDCHAR
STARTCHAR numbersign
ENCODING 35
SWIDTH 556 0
DWIDTH 36 0
BBX 32 45 2 0
BITMAP
003E01F0
003E03E0
003E03E0
003E03E0
003C03E0
007C03E0
007C03E0
007C03C0
007C07C0
007C07C0
007C07C0
007807C0
00F807C0
3FFFFFFF
3FFFFFFF
3FFFFFFF
3FFFFFFF
3FFFFFFF
00F00F80
01F00F80
01F00F80
01F00F80
01F00F00
01F01F00
01F01F00
01F01F00
01E01F00
FFFFFFFC
FFFFFFFC
FFFFFFFC
FFFFFFFC
FFFFFFFC
03E03E00
03C03E00
07C03E00
07C03E00
07C03C00
07C07C00
07C07C00
07C07C00
07C07C00
0F807C00
0F807C00
0F807C00
0F80F800
ENDCHAR
STARTCHAR dollar
ENCODING 36
SWIDTH 556 0
DWIDTH 36 0
BBX 25 57 5 -6
BITMAP
003C0000
003C0000
003C0000
003C0000
003C0000
003C0000
007FE000
03FFFE00
07FFFF00
1FFFFE00
3FFFFE00
3FFFFE00
7FBC0600
7F3C0000
FE3C0000
FC3C0000
FC3C0000
FC3C0000
FC3C0000
FC3C0000
FE3C0000
FF3C0000
7FBC0000
7FFC0000
3FFC0000
3FFC0000
1FFF0000
07FFC000
03FFF000
00FFF800
003FFC00
003FFE00
003FFF00
003CFF00
003C7F00
003C3F80
003C1F80
003C1F80
003C1F80
003C1F80
003C1F80
003C3F80
003C3F00
003C7F00
603DFF00
7C3FFE00
7FFFFC00
7FFFF800
FFFFF000
FFFFC000
1FFF0000
003C0000
003C0000
003C0000
003C0000
003C0000
003C0000
ENDCHAR
STARTCHAR percent
ENCODING 37
SWIDTH 1000 0
DWIDTH 64 0
BBX 51 47 7 -1
BITMAP
000000000F8000
03FC00000F0000
0FFF00001F0000
1FFF80001E0000
3FFFC0003E0000
3FFFC0007C0000
7F0FE0007C0000
7E07E000F80000
7E03E000F00000
FC03F001F00000
FC03F001E00000
FC03F003E00000
FC03F007C00000
FC03F007800000
FC03F00F800000
FC03F00F000000
FC03F01F000000
FC03F03E000000
FC03F03C000000
7E07E07C000000
7E07E078000000
7F0FE0F807F800
3FFFC1F01FFE00
3FFFC1E03FFF00
1FFF83E07FFF80
07FE03C07FFF80
03FC07C0FE1FC0
00000F80FC0FC0
00000F80FC07C0
00001F01F807E0
00001E01F807E0
00003E01F807E0
00003C01F807E0
00007C01F807E0
0000F801F807E0
0000F001F807E0
0001F001F807E0
0001E001F807E0
0003E001F807E0
0007C000FC0FC0
00078000FC0FC0
000F8000FE1FC0
000F00007FFF80
001F00007FFF80
003E00003FFF00
003E00000FFC00
007C000007F800
ENDCHAR
STARTCHAR ampersand
ENCODING 38
SWIDTH 722 0
DWIDTH 46 0
BBX 38 46 5 -1
BITMAP
0007F80000
003FFE0000
007FFF8000
00FFFFC000
01FFFFE000
03FC0FE000
03F807F000
03F003F000
07F003F000
07E003F000
07E003F000
07E003F000
03F003F000
03F007E000
03F80FE000
03F81FC000
01FC3FC000
00FE7F8000
00FFFF0000
007FFC0000
003FF80000
00FFE003F0
03FFE003F0
07FFF003F0
0FFFF803F0
1FE3FC03F0
3FC1FE07E0
7F80FE07E0
7F007F07E0
7E007F87E0
FC003FCFC0
FC001FEFC0
FC000FFF80
FC0007FF80
FC0003FF00
FC0001FF00
FE0001FE00
7E0001FF00
7F0003FF80
7FC007FFC0
3FE01FFFE0
1FFFFFEFF0
0FFFFFC7F0
07FFFF07F8
01FFFE03FC
003FE00000
ENDCHAR
STARTCHAR quotesingle
ENCODING 39
SWIDTH 278 0
DWIDTH 18 0
BBX 6 16 6 29
BITMAP
FC
FC
FC
FC
FC
FC
FC
FC
FC
FC
FC
FC
FC
FC
FC
FC
ENDCHAR
STARTCHAR parenleft
ENCODING 40
SWIDTH 333 0
DWIDTH 21 0
BBX 16 57 4 -9
BITMAP
003F
003E
007E
00FC
00FC
01F8
01F8
03F0
07F0
07E0
0FE0
0FC0
0FC0
1F80
1F80
3F80
3F00
3F00
7F00
7E00
7E00
7E00
FE00
FC00
FC00
FC00
FC00
FC00
FC00
FC00
FC00
FC00
FC00
FC00
FE00
7E00
7E00
7E00
7E00
3F00
3F00
3F00
1F80
1F80
1FC0
0FC0
0FC0
07E0
07E0
03F0
03F0
01F8
00FC
00FC
007E
003E
003F
ENDCHAR
STARTCHAR parenright
ENCODING 41
SWIDTH 333 0
DWIDTH 21 0
BBX 16 57 1 -9
BITMAP
FC00
7C00
7E00
3F00
3F00
1F80
0FC0
0FC0
07E0
07E0
03F0
03F0
03F0
01F8
01F8
00FC
00FC
00FC
00FE
007E
007E
007E
007E
003F
003F
003F
003F
003F
003F
003F
003F
003F
003F
003F
007F
007E
007E
007E
00FE
00FC
00FC
01FC
01F8
01F8
03F0
03F0
07F0
07E0
0FE0
0FC0
1F80
1F80
3F00
3F00
7E00
7C00
FC00
ENDCHAR
STARTCHAR asterisk
ENCODING 42
SWIDTH 556 0
DWIDTH 36 0
BBX 26 25 5 20
BITMAP
003F0000
003F0000
003F0000
001F0000
001F0000
001E0000
401E0100
781E0780
7E1E1F80
7F9E7F80
FFFFFFC0
FFFFFFC0
0FFFFC00
00FFC000
007F8000
007F8000
00FFC000
01F3E000
03F3F000
07E1F800
0FC1FC00
1FC0FE00
0F807C00
07807000
01002000
ENDCHAR
STARTCHAR plus
ENCODING 43
SWIDTH 600 0
DWIDTH 38 0
BBX 32 32 3 0
BITMAP
0007E000
0007E000
0007E000
0007E000
0007E000
0007E000
0007E000
0007E000
0007E000
0007E000
0007E000
0007E000
0007E000
FFFFFFFF
FFFFFFFF
FFFFFFFF
FFFFFFFF
FFFFFFFF
FFFFFFFF
0007E000
0007E000
0007E000
0007E000
0007E000
0007E000
0007E000
0007E000
0007E000
0007E000
0007E000
0007E000
0007E000
ENDCHAR
STARTCHAR comma
ENCODING 44
SWIDTH 278 0
DWIDTH 18 0
BBX 11 16 1 -9
BITMAP
0FE0
0FE0
1FC0
1FC0
1FC0
1F80
3F80
3F80
3F00
3F00
7F00
7E00
7E00
7E00
FC00
FC00
ENDCHAR
STARTCHAR hyphen
ENCODING 45
SWIDTH 333 0
DWIDTH 21 0
BBX 17 5 2 15
BITMAP
FFFF80
FFFF80
FFFF80
FFFF80
FFFF80
ENDCHAR
STARTCHAR period
ENCODING 46
SWIDTH 278 0
DWIDTH 18 0
BBX 7 7 5 0
BITMAP
FE
FE
FE
FE
FE
FE
FE
ENDCHAR
STARTCHAR slash
ENCODING 47
SWIDTH 278 0
DWIDTH 18 0
BBX 21 46 -2 -1
BITMAP
0001F8
0001F8
0001F8
0003F0
0003F0
0003F0
0007E0
0007E0
0007E0
000FC0
000FC0
000FC0
001F80
001F80
001F80
003F00
003F00
003F00
007E00
007E00
007E00
00FC00
00FC00
00FC00
01F800
01F800
01F800
03F000
03F000
07F000
07E000
07E000
0FE000
0FC000
0FC000
1FC000
1F8000
1F8000
3F8000
3F0000
3F0000
7F0000
7E0000
7E0000
FE0000
FC0000
ENDCHAR
STARTCHAR zero
ENCODING 48
SWIDTH 556 0
DWIDTH 36 0
BBX 30 46 3 -1
BITMAP
001FE000
00FFF800
01FFFE00
03FFFF00
07FFFF80
0FF87F80
0FE01FC0
1FC00FE0
1F800FE0
3F8007E0
3F0007F0
7F0003F0
7E0003F0
7E0003F8
7E0001F8
7E0001F8
FC0001F8
FC0001F8
FC0001F8
FC0001F8
FC0001F8
FC0001FC
FC0000FC
FC0000FC
FC0000FC
FC0001F8
FC0001F8
FC0001F8
FC0001F8
FC0001F8
7E0001F8
7E0001F8
7E0001F8
7E0003F0
7F0003F0
3F0003F0
3F0007E0
1F8007E0
1FC00FE0
0FE01FC0
0FF87F80
07FFFF80
03FFFF00
01FFFC00
00FFF800
001FE000
ENDCHAR
STARTCHAR one
ENCODING 49
SWIDTH 556 0
DWIDTH 36 0
BBX 16 45 7 0
BITMAP
003F
007F
00FF
03FF
07FF
0FFF
1FFF
3FFF
FFBF
FF3F
7C3F
383F
303F
003F
003F
003F
003F
003F
003F
003F
003F
003F
003F
003F
003F
003F
003F
003F
003F
003F
003F
003F
003F
003F
003F
003F
003F
003F
003F
003F
003F
003F
003F
003F
003F
ENDCHAR
STARTCHAR two
ENCODING 50
SWIDTH 556 0
DWIDTH 36 0
BBX 28 45 3 0
BITMAP
00FF8000
0FFFF000
3FFFFC00
3FFFFE00
3FFFFF00
3F81FF80
3C007FC0
20001FC0
00000FC0
00000FE0
000007E0
000007E0
000007E0
000007E0
000007E0
00000FE0
00000FC0
00000FC0
00001FC0
00001F80
00003F00
00007F00
00007E00
0000FC00
0001FC00
0003F800
0007F000
000FE000
001FC000
003F8000
007F0000
00FE0000
01FC0000
07F80000
0FF00000
1FE00000
3FC00000
7F800000
FF000000
FC000000
FFFFFFF0
FFFFFFF0
FFFFFFF0
FFFFFFF0
FFFFFFF0
ENDCHAR
STARTCHAR three
ENCODING 51
SWIDTH 556 0
DWIDTH 36 0
BBX 27 46 3 -1
BITMAP
01FF8000
1FFFF000
3FFFFC00
3FFFFE00
3FFFFF00
3F83FF80
38007F80
00001FC0
00000FC0
00000FC0
00000FE0
000007E0
000007E0
00000FE0
00000FC0
00000FC0
00001FC0
00003F80
0000FF00
03FFFE00
03FFFC00
03FFF000
03FFC000
03FFF800
03FFFE00
0001FF00
00003F80
00001FC0
00000FC0
00000FC0
000007E0
000007E0
000007E0
000007E0
000007E0
000007E0
00000FE0
00001FC0
80003FC0
E0007FC0
FE07FF80
FFFFFF00
FFFFFE00
FFFFFC00
7FFFF000
07FF0000
ENDCHAR
STARTCHAR four
ENCODING 52
SWIDTH 556 0
DWIDTH 36 0
BBX 33 45 1 0
BITMAP
00003FE000
00007FE000
00007FE000
0000FFE000
0000FFE000
0001FFE000
0003F7E000
0003F7E000
0007E7E000
000FC7E000
000FC7E000
001F87E000
001F87E000
003F07E000
007E07E000
007E07E000
00FC07E000
00FC07E000
01F807E000
03F007E000
03F007E000
07E007E000
07E007E000
0FC007E000
1F8007E000
1F8007E000
3F0007E000
3F0007E000
7E0007E000
FC0007E000
FFFFFFFF80
FFFFFFFF80
FFFFFFFF80
FFFFFFFF80
FFFFFFFF80
000007E000
000007E000
000007E000
000007E000
000007E000
000007E000
000007E000
000007E000
000007E000
000007E000
ENDCHAR
STARTCHAR five
ENCODING 53
SWIDTH 556 0
DWIDTH 36 0
BBX 26 46 5 -1
BITMAP
7FFFFF80
7FFFFF80
7FFFFF80
7FFFFF80
7FFFFF80
7E000000
7E000000
7E000000
7E000000
7E000000
7E000000
7E000000
7E000000
7E000000
7E000000
7E000000
7E000000
7FFF0000
7FFFC000
7FFFF000
7FFFF800
7FFFFC00
7C0FFE00
0001FF00
00007F00
00003F80
00003F80
00001FC0
00001FC0
00000FC0
00000FC0
00000FC0
00000FC0
00000FC0
00000FC0
00001F80
00001F80
00003F80
80007F00
C001FE00
FC0FFE00
FFFFFC00
FFFFF800
FFFFE000
FFFF8000
0FFC0000
ENDCHAR
STARTCHAR six
ENCODING 54
SWIDTH 556 0
DWIDTH 36 0
BBX 29 46 3 -1
BITMAP
0007FE00
003FFFC0
007FFFC0
01FFFFC0
03FFFFC0
07FF0FC0
0FF800C0
0FE00000
1FC00000
1F800000
3F800000
3F000000
3F000000
7E000000
7E000000
7E000000
7C000000
FC0FF000
FC7FFC00
FCFFFF00
FDFFFF80
FFFFFFC0
FFF87FC0
FFE01FE0
FF800FE0
FF0007F0
FF0003F0
FE0003F0
FE0003F0
FE0003F8
FE0001F8
FE0001F8
7E0001F8
7E0003F0
7E0003F0
7F0003F0
3F0007F0
3F8007E0
3F800FE0
1FE01FE0
0FF87FC0
0FFFFF80
07FFFF00
03FFFE00
00FFF800
003FC000
ENDCHAR
STARTCHAR seven
ENCODING 55
SWIDTH 556 0
DWIDTH 36 0
BBX 29 45 3 0
BITMAP
FFFFFFF8
FFFFFFF8
FFFFFFF8
FFFFFFF8
FFFFFFF8
000003F0
000007F0
000007F0
000007E0
00000FE0
00000FC0
00001FC0
00001FC0
00003F80
00003F80
00003F00
00007F00
00007E00
0000FE00
0000FE00
0001FC00
0001FC00
0001F800
0003F800
0003F800
0007F000
0007F000
000FE000
000FE000
000FC000
001FC000
001FC000
003F8000
003F8000
007F0000
007F0000
007F0000
00FE0000
00FE0000
01FC0000
01FC0000
03FC0000
03F80000
03F80000
07F00000
ENDCHAR
STARTCHAR eight
ENCODING 56
SWIDTH 556 0
DWIDTH 36 0
BBX 30 46 2 -1
BITMAP
001FF000
00FFFC00
03FFFF00
0FFFFF80
1FFFFFC0
1FF87FE0
3FC00FF0
3F8007F0
7F0003F0
7E0003F8
7E0001F8
7E0001F8
7E0003F0
7F0003F0
3F0003F0
3F8007E0
1FE00FE0
1FF01FC0
0FFC3F80
07FFFF00
01FFFC00
007FF800
00FFFE00
03FFFF80
07FDFFC0
1FF07FE0
3FC01FF0
3F8007F0
7F0003F8
7E0001F8
FC0001FC
FC0000FC
FC0000FC
FC0000FC
FC0000FC
FC0000FC
FE0001FC
7F0001F8
7F8003F8
3FC00FF0
3FF87FF0
1FFFFFE0
0FFFFFC0
03FFFF80
01FFFE00
003FF000
ENDCHAR
STARTCHAR nine
ENCODING 57
SWIDTH 556 0
DWIDTH 36 0
BBX 29 46 3 -1
BITMAP
003FE000
00FFF800
03FFFE00
07FFFF00
0FFFFF80
1FF0FF80
3FC03FC0
3F800FE0
7F000FE0
7F0007E0
7E0007F0
7E0003F0
7E0003F0
FC0003F0
FC0003F8
FC0003F8
FE0003F8
7E0003F8
7E0003F8
7E0007F8
7F0007F8
3F800FF8
3FC03FF8
1FF0FFF8
1FFFFFF8
0FFFFDF8
07FFF9F8
01FFF1F8
003F81F0
000003F0
000003F0
000003F0
000003F0
000007E0
000007E0
00000FE0
00000FC0
00001FC0
00003F80
1800FF80
1F87FF00
1FFFFE00
1FFFFC00
1FFFF800
1FFFE000
03FF0000
ENDCHAR
STARTCHAR colon
ENCODING 58
SWIDTH 278 0
DWIDTH 18 0
BBX 7 33 5 0
BITMAP
FE
FE
FE
FE
FE
FE
FE
00
00
00
00
00
00
00
00
00
00
00
00
00
00
00
00
00
00
00
FE
FE
FE
FE
FE
FE
FE
ENDCHAR
STARTCHAR semicolon
ENCODING 59
SWIDTH 278 0
DWIDTH 18 0
BBX 11 41 1 -8
BITMAP
0FE0
0FE0
0FE0
0FE0
0FE0
0FE0
0FE0
0000
0000
0000
0000
0000
0000
0000
0000
0000
0000
0000
0000
0000
0000
0000
0000
0000
0000
0FE0
0FE0
1FC0
1FC0
1FC0
1F80
3F80
3F80
3F00
3F00
7F00
7E00
7E00
7E00
FC00
FC00
ENDCHAR
STARTCHAR less
ENCODING 60
SWIDTH 600 0
DWIDTH 38 0
BBX 33 33 3 0
BITMAP
0000000180
0000000780
0000001F80
000000FF80
000003FF80
00000FFF80
00007FFC00
0001FFF000
0007FFC000
003FFE0000
00FFF80000
03FFE00000
1FFF000000
7FFC000000
FFF0000000
FFC0000000
FF00000000
FFC0000000
FFF0000000
7FFE000000
0FFF800000
03FFE00000
00FFF80000
001FFF0000
0007FFC000
0001FFF000
00003FFE00
00000FFF80
000003FF80
0000007F80
0000001F80
0000000780
0000000080
ENDCHAR
STARTCHAR equal
ENCODING 61
SWIDTH 600 0
DWIDTH 38 0
BBX 32 19 3 7
BITMAP
FFFFFFFF
FFFFFFFF
FFFFFFFF
FFFFFFFF
FFFFFFFF
FFFFFFFF
00000000
00000000
00000000
00000000
00000000
00000000
00000000
FFFFFFFF
FFFFFFFF
FFFFFFFF
FFFFFFFF
FFFFFFFF
FFFFFFFF
ENDCHAR
STARTCHAR greater
ENCODING 62
SWIDTH 600 0
DWIDTH 38 0
BBX 33 33 2 0
BITMAP
C000000000
F000000000
FC00000000
FF80000000
FFE0000000
FFF8000000
1FFF000000
07FFC00000
01FFF00000
003FFE0000
000FFF8000
0003FFE000
0000FFFC00
00001FFF00
000007FF80
000001FF80
0000007F80
000001FF80
000007FF80
00003FFF00
0000FFF800
0003FFE000
000FFF8000
007FFC0000
01FFF00000
07FFC00000
3FFE000000
FFF8000000
FFE0000000
FF00000000
FC00000000
F000000000
8000000000
ENDCHAR
STARTCHAR question
ENCODING 63
SWIDTH 500 0
DWIDTH 32 0
BBX 25 45 4 0
BITMAP
03FE0000
3FFFC000
FFFFF000
FFFFF800
FFFFFC00
7FFFFE00
7001FF00
40007F00
00003F00
00003F80
00001F80
00001F80
00001F80
00001F80
00003F00
00003F00
00007F00
00007E00
0000FC00
0001FC00
0003F800
0007F000
000FE000
001FC000
001FC000
003F8000
007F0000
007E0000
007E0000
007E0000
007E0000
007E0000
00000000
00000000
00000000
00000000
00000000
00000000
00FE0000
00FE0000
00FE0000
00FE0000
00FE0000
00FE0000
00FE0000
ENDCHAR
STARTCHAR at
ENCODING 64
SWIDTH 800 0
DWIDTH 51 0
BBX 45 46 3 -1
BITMAP
00003FF00000
0001FFFF0000
000FFFFFC000
001FFFFFF000
007FFFFFF800
00FF8003FE00
01FE0000FF00
03F800003F80
07F000001F80
0FE000000FC0
1FC0020007E0
1F803FE1F3E0
3F00FFF9F1F0
3F01FFFDF1F0
7E03FFFFE1F0
7E07FFFFE0F0
7C0FF03FE0F8
7C0FE01FE0F8
FC1FC00FC0F8
FC1F800FC0F8
F83F000FC0F8
F83F000F80F8
F83F000F80F0
F83E000F80F0
F87E000F80F0
F87E001F01F0
F87E001F01E0
FC7E003F03E0
FC3F003F03C0
7C3F007E0780
7C3F81FE0F80
7E1FFFFF3F00
3E1FFFFFFE00
3F0FFFBFFC00
1F87FF3FF000
1F81FE1FC000
0FC0200407E0
07E000000FC0
07F800001F80
03FC00007F00
01FF8003FE00
007FFFFFF800
003FFFFFF000
000FFFFFC000
0003FFFF0000
00003FF80000
ENDCHAR
STARTCHAR A
ENCODING 65
SWIDTH 722 0
DWIDTH 46 0
BBX 44 45 1 0
BITMAP
00001F800000
00003FC00000
00003FC00000
00003FC00000
00007FE00000
00007FE00000
0000FFF00000
0000FBF00000
0001F9F80000
0001F1F80000
0001F0F80000
0003F0FC0000
0003E0FC0000
0007E07E0000
0007C07E0000
000FC03E0000
000FC03F0000
000F803F0000
001F801F8000
001F001F8000
003F000FC000
003F000FC000
007E000FC000
007E0007E000
007C0007E000
00FC0003F000
00FC0003F000
01F80001F800
01F80001F800
03FFFFFFF800
03FFFFFFFC00
03FFFFFFFC00
07FFFFFFFE00
07FFFFFFFE00
0FC000007E00
0FC000003F00
0FC000003F00
1F8000001F80
1F8000001F80
3F0000000FC0
3F0000000FC0
7E0000000FC0
7E00000007E0
7E00000007E0
FC00000003F0
ENDCHAR
STARTCHAR B
ENCODING 66
SWIDTH 611 0
DWIDTH 39 0
BBX 28 45 5 0
BITMAP
FFFF8000
FFFFF800
FFFFFE00
FFFFFF00
FFFFFF80
FC01FFC0
FC003FC0
FC000FE0
FC000FE0
FC0007E0
FC0007E0
FC0007E0
FC0007E0
FC0007E0
FC0007E0
FC0007E0
FC000FC0
FC001FC0
FC00FF80
FFFFFE00
FFFFFC00
FFFFE000
FFFFF800
FFFFFE00
FC03FF80
FC003FC0
FC000FC0
FC0007E0
FC0007E0
FC0003F0
FC0003F0
FC0003F0
FC0003F0
FC0003F0
FC0003F0
FC0003F0
FC0007F0
FC000FE0
FC003FE0
FC03FFC0
FFFFFFC0
FFFFFF80
FFFFFE00
FFFFF800
FFFFC000
ENDCHAR
STARTCHAR C
ENCODING 67
SWIDTH 611 0
DWIDTH 39 0
BBX 34 46 3 -1
BITMAP
00003FF800
0001FFFF80
000FFFFFC0
003FFFFFC0
007FFFFF80
00FFFFFF80
03FFC00780
07FE000080
07F8000000
0FF0000000
1FE0000000
1FC0000000
3F80000000
3F80000000
7F00000000
7E00000000
7E00000000
FE00000000
FE00000000
FC00000000
FC00000000
FC00000000
FC00000000
FC00000000
FC00000000
FC00000000
FC00000000
FC00000000
7E00000000
7E00000000
7F00000000
7F00000000
3F80000000
3F80000000
1FC0000000
1FE0000000
0FF0000000
0FF8000000
07FE000080
03FFC00380
01FFFFFF80
00FFFFFFC0
003FFFFFC0
000FFFFFC0
0003FFFFC0
00003FFC00
ENDCHAR
STARTCHAR D
ENCODING 68
SWIDTH 722 0
DWIDTH 46 0
BBX 36 45 5 0
BITMAP
FFFFC00000
FFFFFC0000
FFFFFF0000
FFFFFFC000
FFFFFFF000
FFFFFFF800
FC001FFC00
FC0003FE00
FC0001FF00
FC00007F80
FC00003F80
FC00001FC0
FC00001FC0
FC00000FE0
FC000007E0
FC000007E0
FC000007F0
FC000003F0
FC000003F0
FC000003F0
FC000003F0
FC000003F0
FC000003F0
FC000003F0
FC000003F0
FC000003F0
FC000003F0
FC000003F0
FC000007F0
FC000007E0
FC000007E0
FC00000FE0
FC00000FC0
FC00001FC0
FC00003F80
FC00007F80
FC0000FF00
FC0003FF00
FC000FFE00
FFFFFFFC00
FFFFFFF000
FFFFFFE000
FFFFFF8000
FFFFFE0000
FFFFE00000
ENDCHAR
STARTCHAR E
ENCODING 69
SWIDTH 556 0
DWIDTH 36 0
BBX 25 45 6 0
BITMAP
FFFFFF80
FFFFFF80
FFFFFF80
FFFFFF80
FFFFFF80
FFFFFF80
FC000000
FC000000
FC000000
FC000000
FC000000
FC000000
FC000000
FC000000
FC000000
FC000000
FC000000
FC000000
FC000000
FFFFFE00
FFFFFE00
FFFFFE00
FFFFFE00
FFFFFE00
FFFFFE00
FC000000
FC000000
FC000000
FC000000
FC000000
FC000000
FC000000
FC000000
FC000000
FC000000
FC000000
FC000000
FC000000
FC000000
FFFFFF80
FFFFFF80
FFFFFF80
FFFFFF80
FFFFFF80
FFFFFF80
ENDCHAR
STARTCHAR F
ENCODING 70
SWIDTH 500 0
DWIDTH 32 0
BBX 24 45 5 0
BITMAP
FFFFFF
FFFFFF
FFFFFF
FFFFFF
FFFFFF
FFFFFF
FC0000
FC0000
FC0000
FC0000
FC0000
FC0000
FC0000
FC0000
FC0000
FC0000
FC0000
FC0000
FC0000
FFFFFE
FFFFFE
FFFFFE
FFFFFE
FFFFFE
FFFFFE
FC0000
FC0000
FC0000
FC0000
FC0000
FC0000
FC0000
FC0000
FC0000
FC0000
FC0000
FC0000
FC0000
FC0000
FC0000
FC0000
FC0000
FC0000
FC0000
FC0000
ENDCHAR
STARTCHAR G
ENCODING 71
SWIDTH 722 0
DWIDTH 46 0
BBX 37 46 3 -1
BITMAP
00003FFC00
0001FFFFC0
000FFFFFF0
003FFFFFF0
007FFFFFF0
00FFFFFFF0
01FFC001F0
03FE000030
07FC000010
0FF0000000
1FE0000000
1FC0000000
3F80000000
3F80000000
3F00000000
7F00000000
7E00000000
7E00000000
7E00000000
FE00000000
FC00000000
FC0003FFF8
FC0003FFF8
FC0003FFF8
FC0003FFF8
FC0003FFF8
FC000001F8
7E000001F8
7E000001F8
7E000001F8
7F000001F8
3F000001F8
3F800001F8
3F800001F8
1FC00001F8
1FE00001F8
0FF00001F8
07FC0001F8
07FE0001F8
03FFC001F8
01FFFFFFF8
007FFFFFF8
003FFFFFF8
000FFFFFF8
0003FFFFE0
00003FFE00
ENDCHAR
STARTCHAR H
ENCODING 72
SWIDTH 722 0
DWIDTH 46 0
BBX 34 45 6 0
BITMAP
FC00000FC0
FC00000FC0
FC00000FC0
FC00000FC0
FC00000FC0
FC00000FC0
FC00000FC0
FC00000FC0
FC00000FC0
FC00000FC0
FC00000FC0
FC00000FC0
FC00000FC0
FC00000FC0
FC00000FC0
FC00000FC0
FC00000FC0
FC00000FC0
FC00000FC0
FFFFFFFFC0
FFFFFFFFC0
FFFFFFFFC0
FFFFFFFFC0
FFFFFFFFC0
FFFFFFFFC0
FC00000FC0
FC00000FC0
FC00000FC0
FC00000FC0
FC00000FC0
FC00000FC0
FC00000FC0
FC00000FC0
FC00000FC0
FC00000FC0
FC00000FC0
FC00000FC0
FC00000FC0
FC00000FC0
FC00000FC0
FC00000FC0
FC00000FC0
FC00000FC0
FC00000FC0
FC00000FC0
ENDCHAR
STARTCHAR I
ENCODING 73
SWIDTH 278 0
DWIDTH 18 0
BBX 6 45 6 0
BITMAP
FC
FC
FC
FC
FC
FC
FC
FC
FC
FC
FC
FC
FC
FC
FC
FC
FC
FC
FC
FC
FC
FC
FC
FC
FC
FC
FC
FC
FC
FC
FC
FC
FC
FC
FC
FC
FC
FC
FC
FC
FC
FC
FC
FC
FC
ENDCHAR
STARTCHAR J
ENCODING 74
SWIDTH 389 0
DWIDTH 25 0
BBX 17 46 2 -1
BITMAP
001F80
001F80
001F80
001F80
001F80
001F80
001F80
001F80
001F80
001F80
001F80
001F80
001F80
001F80
001F80
001F80
001F80
001F80
001F80
001F80
001F80
001F80
001F80
001F80
001F80
001F80
001F80
001F80
001F80
001F80
001F80
001F80
001F80
001F80
001F80
001F80
003F80
003F80
007F00
00FF00
FFFF00
FFFE00
FFFC00
FFF800
FFF000
FF8000
ENDCHAR
STARTCHAR K
ENCODING 75
SWIDTH 667 0
DWIDTH 43 0
BBX 35 45 6 0
BITMAP
FC00007F80
FC0000FF00
FC0001FE00
FC0003FC00
FC0007F800
FC000FF000
FC001FE000
FC003FC000
FC007F8000
FC00FF0000
FC01FE0000
FC03FC0000
FC07F80000
FC0FF00000
FC1FE00000
FC3FC00000
FC7F800000
FCFF000000
FDFE000000
FFFC000000
FFF8000000
FFF0000000
FFF8000000
FDFC000000
FDFE000000
FCFF000000
FC7F800000
FC3FC00000
FC1FE00000
FC0FF00000
FC07F80000
FC03FC0000
FC01FE0000
FC00FF0000
FC007F8000
FC003FC000
FC003FE000
FC001FF000
FC000FF800
FC0007FC00
FC0003FE00
FC0001FF00
FC0000FF80
FC00007FC0
FC00003FE0
ENDCHAR
STARTCHAR L
ENCODING 76
SWIDTH 500 0
DWIDTH 32 0
BBX 25 45 6 0
BITMAP
FC000000
FC000000
FC000000
FC000000
FC000000
FC000000
FC000000
FC000000
FC000000
FC000000
FC000000
FC000000
FC000000
FC000000
FC000000
FC000000
FC000000
FC000000
FC000000
FC000000
FC000000
FC000000
FC000000
FC000000
FC000000
FC000000
FC000000
FC000000
FC000000
FC000000
FC000000
FC000000
FC000000
FC000000
FC000000
FC000000
FC000000
FC000000
FC000000
FFFFFF80
FFFFFF80
FFFFFF80
FFFFFF80
FFFFFF80
FFFFFF80
ENDCHAR
STARTCHAR M
ENCODING 77
SWIDTH 944 0
DWIDTH 60 0
BBX 48 45 6 0
BITMAP
FFE0000007FF
FFE0000007FF
FFE0000007FF
FFF000000FFF
FFF000000FFF
FFF000000FFF
FFF800001FFF
FDF800001FBF
FDF800001FBF
FDFC00003FBF
FCFC00003F3F
FCFE00007F3F
FC7E00007E3F
FC7E00007E3F
FC7F0000FE3F
FC3F0000FC3F
FC3F0000FC3F
FC3F8001FC3F
FC1F8001F83F
FC1FC001F83F
FC0FC003F03F
FC0FC003F03F
FC0FE007F03F
FC07E007E03F
FC07E007E03F
FC03F00FC03F
FC03F00FC03F
FC03F00FC03F
FC01F81F803F
FC01F81F803F
FC01FC1F803F
FC00FC3F003F
FC00FC3F003F
FC007E3E003F
FC007E7E003F
FC007E7E003F
FC003FFC003F
FC003FFC003F
FC001FF8003F
FC001FF8003F
FC001FF8003F
FC000FF0003F
FC000FF0003F
FC000FF0003F
FC0007E0003F
ENDCHAR
STARTCHAR N
ENCODING 78
SWIDTH 722 0
DWIDTH 46 0
BBX 35 45 6 0
BITMAP
FF800007E0
FF800007E0
FFC00007E0
FFC00007E0
FFE00007E0
FFE00007E0
FFF00007E0
FFF80007E0
FFF80007E0
FDFC0007E0
FCFC0007E0
FCFE0007E0
FC7E0007E0
FC7F0007E0
FC3F8007E0
FC3F8007E0
FC1FC007E0
FC0FC007E0
FC0FE007E0
FC07E007E0
FC07F007E0
FC03F807E0
FC03F807E0
FC01FC07E0
FC00FC07E0
FC00FE07E0
FC007E07E0
FC007F07E0
FC003F07E0
FC003F87E0
FC001FC7E0
FC000FC7E0
FC000FE7E0
FC0007E7E0
FC0007F7E0
FC0003F7E0
FC0003FFE0
FC0001FFE0
FC0001FFE0
FC0000FFE0
FC00007FE0
FC00007FE0
FC00003FE0
FC00003FE0
FC00001FE0
ENDCHAR
STARTCHAR O
ENCODING 79
SWIDTH 778 0
DWIDTH 50 0
BBX 42 46 3 -1
BITMAP
0000FFC00000
0007FFF80000
001FFFFF0000
007FFFFF8000
00FFFFFFC000
01FFFFFFF000
03FF003FF800
07FC0007F800
0FF00003FC00
1FE00001FE00
1FC00000FE00
3F8000007F00
3F8000007F00
7F0000003F80
7F0000001F80
7E0000001F80
7E0000001FC0
FE0000000FC0
FC0000000FC0
FC0000000FC0
FC0000000FC0
FC0000000FC0
FC0000000FC0
FC0000000FC0
FC0000000FC0
FC0000000FC0
FC0000000FC0
FC0000000FC0
FE0000000FC0
7E0000001FC0
7E0000001F80
7F0000001F80
7F0000003F80
3F8000003F00
3F8000007F00
1FC00000FE00
1FE00001FE00
0FF00003FC00
07FC0007FC00
07FF001FF800
03FFFFFFF000
00FFFFFFE000
007FFFFF8000
003FFFFF0000
0007FFFC0000
0000FFC00000
ENDCHAR
STARTCHAR P
ENCODING 80
SWIDTH 556 0
DWIDTH 36 0
BBX 28 45 5 0
BITMAP
FFFF8000
FFFFF000
FFFFFC00
FFFFFF00
FFFFFF80
FFFFFF80
FC00FFC0
FC003FE0
FC000FE0
FC000FE0
FC0007E0
FC0007F0
FC0003F0
FC0003F0
FC0003F0
FC0007F0
FC0007E0
FC0007E0
FC000FE0
FC001FE0
FC007FC0
FFFFFF80
FFFFFF80
FFFFFF00
FFFFFC00
FFFFF000
FFFF8000
FC000000
FC000000
FC000000
FC000000
FC000000
FC000000
FC000000
FC000000
FC000000
FC000000
FC000000
FC000000
FC000000
FC000000
FC000000
FC000000
FC000000
FC000000
ENDCHAR
STARTCHAR Q
ENCODING 81
SWIDTH 778 0
DWIDTH 50 0
BBX 42 53 3 -8
BITMAP
0000FFC00000
0007FFF80000
001FFFFF0000
007FFFFF8000
00FFFFFFC000
01FFFFFFF000
03FF003FF800
07FC0007F800
0FF00003FC00
1FE00001FE00
1FC00000FE00
3F8000007F00
3F8000007F00
7F0000003F80
7F0000001F80
7E0000001F80
7E0000001FC0
FE0000000FC0
FC0000000FC0
FC0000000FC0
FC0000000FC0
FC0000000FC0
FC0000000FC0
FC0000000FC0
FC0000000FC0
FC0000000FC0
FC0000000FC0
FC0000000FC0
FE0000000FC0
7E0000001FC0
7E0000001F80
7F0000001F80
7F0000003F80
3F8000003F00
3F8000007F00
1FC00000FE00
1FE00001FE00
0FF00003FC00
07FC0007FC00
07FF001FF800
03FFFFFFF000
00FFFFFFE000
007FFFFF8000
003FFFFF0000
0007FFFE0000
0000FFFF0000
0000007F8000
0000001FC000
0000000FF000
00000007F800
00000003FC00
00000001FE00
00000000FF80
ENDCHAR
STARTCHAR R
ENCODING 82
SWIDTH 611 0
DWIDTH 39 0
BBX 32 45 5 0
BITMAP
FFFFC000
FFFFF800
FFFFFE00
FFFFFF00
FFFFFF80
FFFFFFC0
FC003FC0
FC001FE0
FC000FE0
FC0007E0
FC0007E0
FC0007E0
FC0007F0
FC0007E0
FC0007E0
FC0007E0
FC000FC0
FC003FC0
FC00FF80
FFFFFF00
FFFFFE00
FFFFF800
FFFFE000
FFFFF800
FFFFFC00
FC03FC00
FC00FE00
FC00FE00
FC007F00
FC007F00
FC003F80
FC003F80
FC001FC0
FC001FC0
FC000FE0
FC000FE0
FC0007F0
FC0007F0
FC0003F8
FC0003F8
FC0001FC
FC0001FC
FC0001FE
FC0000FE
FC0000FF
ENDCHAR
STARTCHAR S
ENCODING 83
SWIDTH 500 0
DWIDTH 32 0
BBX 25 46 3 -1
BITMAP
003FF000
01FFFE00
07FFFE00
1FFFFE00
3FFFFE00
3FFFFE00
7F800E00
7F000000
FE000000
FC000000
FC000000
FC000000
FC000000
FC000000
FE000000
FF000000
7F800000
7FE00000
3FF80000
3FFE0000
1FFF8000
07FFC000
03FFF000
00FFF800
003FFC00
000FFE00
0003FE00
0000FF00
00007F00
00003F80
00003F80
00001F80
00001F80
00001F80
00001F80
00001F80
00003F80
00007F00
4000FF00
7803FE00
7FFFFE00
7FFFFC00
FFFFF800
FFFFE000
7FFFC000
07FC0000
ENDCHAR
STARTCHAR T
ENCODING 84
SWIDTH 556 0
DWIDTH 36 0
BBX 34 45 1 0
BITMAP
FFFFFFFFC0
FFFFFFFFC0
FFFFFFFFC0
FFFFFFFFC0
FFFFFFFFC0
FFFFFFFFC0
0003F00000
0003F00000
0003F00000
0003F00000
0003F00000
0003F00000
0003F00000
0003F00000
0003F00000
0003F00000
0003F00000
0003F00000
0003F00000
0003F00000
0003F00000
0003F00000
0003F00000
0003F00000
0003F00000
0003F00000
0003F00000
0003F00000
0003F00000
0003F00000
0003F00000
0003F00000
0003F00000
0003F00000
0003F00000
0003F00000
0003F00000
0003F00000
0003F00000
0003F00000
0003F00000
0003F00000
0003F00000
0003F00000
0003F00000
ENDCHAR
STARTCHAR U
ENCODING 85
SWIDTH 722 0
DWIDTH 46 0
BBX 34 46 6 -1
BITMAP
FC00000FC0
FC00000FC0
FC00000FC0
FC00000FC0
FC00000FC0
FC00000FC0
FC00000FC0
FC00000FC0
FC00000FC0
FC00000FC0
FC00000FC0
FC00000FC0
FC00000FC0
FC00000FC0
FC00000FC0
FC00000FC0
FC00000FC0
FC00000FC0
FC00000FC0
FC00000FC0
FC00000FC0
FC00000FC0
FC00000FC0
FC00000FC0
FC00000FC0
FC00000FC0
FC00000FC0
FC00000FC0
FC00000FC0
FC00000FC0
FC00000FC0
FE00001FC0
FE00001F80
7E00001F80
7E00001F80
7F00003F80
3F80007F00
3F80007F00
1FC000FE00
1FF003FE00
0FFFFFFC00
07FFFFF800
03FFFFF000
01FFFFE000
007FFF8000
000FFC0000
ENDCHAR
STARTCHAR V
ENCODING 86
SWIDTH 667 0
DWIDTH 43 0
BBX 42 45 0 0
BITMAP
FE0000000FC0
7F0000000FC0
7F0000001F80
7F0000001F80
3F8000003F00
3F8000003F00
1F8000003F00
1FC000007E00
1FC000007E00
0FE00000FE00
0FE00000FC00
0FE00000FC00
07F00001F800
07F00001F800
03F00001F800
03F80003F000
03F80003F000
01F80007E000
01FC0007E000
01FC0007E000
00FC000FC000
00FE000FC000
007E000FC000
007E001F8000
007F001F8000
003F003F0000
003F803F0000
003F803F0000
001F807E0000
001FC07E0000
000FC07E0000
000FC0FC0000
000FE0FC0000
0007E1F80000
0007E1F80000
0007F1F80000
0003F3F00000
0003F3F00000
0001FBE00000
0001FFE00000
0001FFE00000
0000FFC00000
0000FFC00000
0000FFC00000
00007F800000
ENDCHAR
STARTCHAR W
ENCODING 87
SWIDTH 1000 0
DWIDTH 64 0
BBX 63 45 1 0
BITMAP
FE00001FF00000FE
FE00001FF00000FE
FE00003FF80000FE
7F00003FF80000FC
7F00003FF80001FC
7F00003FF80001FC
3F00007EFC0001F8
3F80007EFC0003F8
3F80007EFC0003F8
3F80007E7C0003F0
1FC000FC7E0003F0
1FC000FC7E0007F0
1FC000FC7E0007F0
0FC000FC3E0007E0
0FE001F83F0007E0
0FE001F83F000FE0
07E001F83F000FC0
07F001F81F000FC0
07F003F01F801FC0
07F003F01F801F80
03F003F01F801F80
03F803F00F801F80
03F807E00FC03F00
01F807E00FC03F00
01F807E00FC03F00
01FC07E007C07F00
00FC0FC007E07E00
00FC0FC007E07E00
00FE0FC007E07E00
00FE0FC003E0FC00
007E1F8003F0FC00
007E1F8003F0FC00
007F1F8003F0F800
003F1F8003F1F800
003F3F0001F9F800
003F3F0001F9F800
001FBF0001FBF000
001FBF0001FBF000
001FFE0000FFF000
001FFE0000FFE000
000FFE0000FFE000
000FFE0000FFE000
000FFC00007FC000
0007FC00007FC000
0007FC00007FC000
ENDCHAR
STARTCHAR X
ENCODING 88
SWIDTH 667 0
DWIDTH 43 0
BBX 41 45 1 0
BITMAP
7F800000FF00
3FC00001FE00
1FC00001FC00
1FE00003F800
0FF00007F800
07F80007F000
03F8000FE000
03FC001FE000
01FE001FC000
00FE003F8000
00FF007F0000
007F807F0000
003F80FE0000
003FC1FC0000
001FE3FC0000
000FE3F80000
000FF7F00000
0007FFF00000
0003FFE00000
0001FFC00000
0001FF800000
0000FF800000
0001FF800000
0001FFC00000
0003FFE00000
0007FFF00000
0007FFF00000
000FE7F80000
001FC3FC0000
003FC3FC0000
003F81FE0000
007F00FF0000
00FF007F0000
00FE007F8000
01FC003FC000
03FC001FE000
03F8001FE000
07F0000FF000
0FF00007F800
1FE00007F800
1FC00003FC00
3FC00001FE00
7F800001FE00
7F000000FF00
FF0000007F80
ENDCHAR
STARTCHAR Y
ENCODING 89
SWIDTH 667 0
DWIDTH 43 0
BBX 40 45 1 0
BITMAP
FE0000007F
7F000000FE
7F800001FE
3F800001FC
1FC00003F8
1FE00007F8
0FE00007F0
07F0000FE0
07F8000FE0
03F8001FC0
01FC003F80
01FC003F80
00FE007F00
007F00FE00
007F00FE00
003F81FC00
001FC3F800
001FC3F800
000FE7F000
0007F7E000
0007FFE000
0003FFC000
0001FF8000
0001FF8000
0000FF0000
00007E0000
00007E0000
00007E0000
00007E0000
00007E0000
00007E0000
00007E0000
00007E0000
00007E0000
00007E0000
00007E0000
00007E0000
00007E0000
00007E0000
00007E0000
00007E0000
00007E0000
00007E0000
00007E0000
00007E0000
ENDCHAR
STARTCHAR Z
ENCODING 90
SWIDTH 556 0
DWIDTH 36 0
BBX 31 45 2 0
BITMAP
7FFFFFFE
7FFFFFFE
7FFFFFFE
7FFFFFFE
7FFFFFFE
7FFFFFFE
000001FC
000003F8
000007F8
00000FF0
00000FE0
00001FE0
00003FC0
00003F80
00007F80
0000FF00
0000FE00
0001FC00
0003FC00
0003F800
0007F000
000FF000
000FE000
001FC000
003FC000
007F8000
007F0000
00FF0000
01FE0000
01FC0000
03FC0000
07F80000
07F00000
0FE00000
1FE00000
1FC00000
3F800000
7F800000
7F000000
FFFFFFFE
FFFFFFFE
FFFFFFFE
FFFFFFFE
FFFFFFFE
FFFFFFFE
ENDCHAR
STARTCHAR bracketleft
ENCODING 91
SWIDTH 333 0
DWIDTH 21 0
BBX 12 57 6 -9
BITMAP
FFF0
FFF0
FFF0
FFF0
FC00
FC00
FC00
FC00
FC00
FC00
FC00
FC00
FC00
FC00
FC00
FC00
FC00
FC00
FC00
FC00
FC00
FC00
FC00
FC00
FC00
FC00
FC00
FC00
FC00
FC00
FC00
FC00
FC00
FC00
FC00
FC00
FC00
FC00
FC00
FC00
FC00
FC00
FC00
FC00
FC00
FC00
FC00
FC00
FC00
FC00
FC00
FC00
FC00
FFF0
FFF0
FFF0
FFF0
ENDCHAR
STARTCHAR backslash
ENCODING 92
SWIDTH 278 0
DWIDTH 18 0
BBX 21 46 -1 -1
BITMAP
FC0000
FC0000
FC0000
7E0000
7E0000
7E0000
3F0000
3F0000
3F0000
1F8000
1F8000
1F8000
0FC000
0FC000
0FC000
07E000
07E000
07E000
03F000
03F000
03F000
01F800
01F800
01F800
00FC00
00FC00
00FC00
007E00
007E00
007E00
003F00
003F00
003F00
001F80
001F80
001F80
000FC0
000FC0
000FE0
0007E0
0007E0
0007F0
0003F0
0003F0
0003F8
0001F8
ENDCHAR
STARTCHAR bracketright
ENCODING 93
SWIDTH 333 0
DWIDTH 21 0
BBX 12 57 3 -9
BITMAP
FFF0
FFF0
FFF0
FFF0
03F0
03F0
03F0
03F0
03F0
03F0
03F0
03F0
03F0
03F0
03F0
03F0
03F0
03F0
03F0
03F0
03F0
03F0
03F0
03F0
03F0
03F0
03F0
03F0
03F0
03F0
03F0
03F0
03F0
03F0
03F0
03F0
03F0
03F0
03F0
03F0
03F0
03F0
03F0
03F0
03F0
03F0
03F0
03F0
03F0
03F0
03F0
03F0
03F0
FFF0
FFF0
FFF0
FFF0
ENDCHAR
STARTCHAR asciicircum
ENCODING 94
SWIDTH 600 0
DWIDTH 38 0
BBX 31 26 4 19
BITMAP
0007E000
000FE000
000FE000
001FF000
001FF000
003FF800
003EF800
007EFC00
007C7C00
00FC7E00
00F83E00
01F83F00
01F01F00
03F01F80
03F00F80
07E00FC0
07E007C0
0FC007E0
0FC003E0
1F8003F0
1F8001F0
3F0001F8
3F0000F8
7E0000FC
7E0000FC
FC00007E
ENDCHAR
STARTCHAR underscore
ENCODING 95
SWIDTH 500 0
DWIDTH 32 0
BBX 32 3 0 -8
BITMAP
FFFFFFFF
FFFFFFFF
FFFFFFFF
ENDCHAR
STARTCHAR grave
ENCODING 96
SWIDTH 278 0
DWIDTH 18 0
BBX 12 9 0 37
BITMAP
FE00
7F00
3F00
1F80
0FC0
07C0
03E0
01E0
00F0
ENDCHAR
STARTCHAR a
ENCODING 97
SWIDTH 556 0
DWIDTH 36 0
BBX 28 34 3 -1
BITMAP
003FF000
01FFFE00
07FFFF00
0FFFFF80
0FFFFFC0
0FC03FC0
0E000FE0
080007E0
000007E0
000003F0
000003F0
000003F0
000003F0
001FFFF0
01FFFFF0
07FFFFF0
0FFFFFF0
1FFFFFF0
3FE003F0
7F8003F0
7F0003F0
7E0003F0
FE0003F0
FC0003F0
FC0007F0
7E0007F0
7E000FF0
7F001FF0
7FC07FF0
3FFFFDF0
1FFFF9F0
0FFFF1F0
07FFE1F0
00FF0000
ENDCHAR
STARTCHAR b
ENCODING 98
SWIDTH 611 0
DWIDTH 39 0
BBX 31 49 5 -1
BITMAP
FC000000
FC000000
FC000000
FC000000
FC000000
FC000000
FC000000
FC000000
FC000000
FC000000
FC000000
FC000000
FC000000
FC000000
FC000000
FC0FF800
FC3FFE00
FC7FFF80
FDFFFFC0
FDFFFFE0
FFF01FF0
FFC007F0
FF8003F8
FF8001F8
FF0001FC
FE0000FC
FE0000FC
FE0000FC
FC0000FC
FC00007E
FC00007E
FC00007E
FC00007E
FC00007E
FC0000FC
FC0000FC
FE0000FC
FE0000FC
FE0001FC
FF0001F8
FF0003F8
FF8007F8
FFC00FF0
FFF01FE0
FFFFFFE0
FDFFFFC0
FC7FFF80
FC3FFE00
0007F800
ENDCHAR
STARTCHAR c
ENCODING 99
SWIDTH 444 0
DWIDTH 28 0
BBX 24 34 2 -1
BITMAP
000FF8
007FFF
01FFFF
03FFFF
07FFFF
0FF806
1FE000
3FC000
3F8000
7F0000
7F0000
7E0000
FE0000
FC0000
FC0000
FC0000
FC0000
FC0000
FC0000
FC0000
FC0000
7E0000
7E0000
7E0000
3F0000
3F8000
1FC000
1FE001
0FF807
07FFFF
03FFFF
00FFFF
007FFF
000FFC
ENDCHAR
STARTCHAR d
ENCODING 100
SWIDTH 611 0
DWIDTH 39 0
BBX 31 49 3 -1
BITMAP
0000007E
0000007E
0000007E
0000007E
0000007E
0000007E
0000007E
0000007E
0000007E
0000007E
0000007E
0000007E
0000007E
0000007E
0000007E
003FC07E
00FFF87E
03FFFC7E
07FFFF7E
0FFFFF7E
1FF01FFE
3FC00FFE
3F8003FE
7F0003FE
7E0001FE
7E0000FE
FE0000FE
FC0000FE
FC00007E
FC00007E
FC00007E
FC00007E
FC00007E
FC00007E
FC00007E
FC00007E
FE0000FE
7E0000FE
7E0000FE
7F0001FE
3F0003FE
3F8003FE
1FC00FFE
1FF01FFE
0FFFFF7E
07FFFF7E
03FFFC7E
00FFF87E
003FC000
ENDCHAR
STARTCHAR e
ENCODING 101
SWIDTH 556 0
DWIDTH 36 0
BBX 29 34 3 -1
BITMAP
001FE000
00FFFC00
01FFFF00
07FFFF80
0FFFFFC0
1FE03FC0
1FC00FE0
3F8007E0
3F0003F0
7E0003F0
7E0001F0
7C0001F8
FC0001F8
FC0001F8
FFFFFFF8
FFFFFFF8
FFFFFFF8
FFFFFFF8
FC000000
FC000000
FC000000
FC000000
7E000000
7E000000
7F000000
3F800000
3FC00020
1FE000E0
0FF807E0
0FFFFFE0
07FFFFE0
01FFFFE0
007FFFC0
000FFC00
ENDCHAR
STARTCHAR f
ENCODING 102
SWIDTH 389 0
DWIDTH 25 0
BBX 23 49 1 0
BITMAP
0001FE
000FFE
001FFE
003FFE
003FFE
007F80
007E00
00FE00
00FC00
00FC00
00FC00
00FC00
00FC00
00FC00
00FC00
00FC00
FFFFFE
FFFFFE
FFFFFE
FFFFFE
FFFFFE
00FC00
00FC00
00FC00
00FC00
00FC00
00FC00
00FC00
00FC00
00FC00
00FC00
00FC00
00FC00
00FC00
00FC00
00FC00
00FC00
00FC00
00FC00
00FC00
00FC00
00FC00
00FC00
00FC00
00FC00
00FC00
00FC00
00FC00
00FC00
ENDCHAR
STARTCHAR g
ENCODING 103
SWIDTH 611 0
DWIDTH 39 0
BBX 31 47 3 -14
BITMAP
001FE07E
00FFFC7E
01FFFE7E
07FFFF7E
0FFFFFFE
0FF01FFE
1FC00FFE
3F8003FE
3F8001FE
7F0001FE
7E0000FE
7E0000FE
FE0000FE
FC00007E
FC00007E
FC00007E
FC00007E
FC00007E
FC00007E
FC00007E
FC00007E
FE0000FE
7E0000FE
7F0001FE
7F0001FE
3F8003FE
3FC007FE
1FF01FFE
0FFFFF7E
07FFFF7E
03FFFC7E
01FFF87E
003FC07E
0000007E
0000007E
000000FE
000000FC
000000FC
000001FC
100003F8
1C0007F8
1F801FF0
1FFFFFE0
1FFFFFC0
1FFFFF80
07FFFE00
007FF000
ENDCHAR
STARTCHAR h
ENCODING 104
SWIDTH 611 0
DWIDTH 39 0
BBX 29 48 5 0
BITMAP
FC000000
FC000000
FC000000
FC000000
FC000000
FC000000
FC000000
FC000000
FC000000
FC000000
FC000000
FC000000
FC000000
FC000000
FC000000
FC07F800
FC3FFE00
FC7FFF80
FCFFFFC0
FDFFFFE0
FFF01FE0
FFC00FF0
FF8007F0
FF0003F0
FF0003F8
FE0003F8
FE0001F8
FE0001F8
FC0001F8
FC0001F8
FC0001F8
FC0001F8
FC0001F8
FC0001F8
FC0001F8
FC0001F8
FC0001F8
FC0001F8
FC0001F8
FC0001F8
FC0001F8
FC0001F8
FC0001F8
FC0001F8
FC0001F8
FC0001F8
FC0001F8
FC0001F8
ENDCHAR
STARTCHAR i
ENCODING 105
SWIDTH 278 0
DWIDTH 18 0
BBX 6 47 6 0
BITMAP
FC
FC
FC
FC
FC
FC
FC
00
00
00
00
00
00
00
FC
FC
FC
FC
FC
FC
FC
FC
FC
FC
FC
FC
FC
FC
FC
FC
FC
FC
FC
FC
FC
FC
FC
FC
FC
FC
FC
FC
FC
FC
FC
FC
FC
ENDCHAR
STARTCHAR j
ENCODING 106
SWIDTH 278 0
DWIDTH 18 0
BBX 13 61 -1 -14
BITMAP
01F8
01F8
01F8
01F8
01F8
01F8
01F8
0000
0000
0000
0000
0000
0000
0000
01F8
01F8
01F8
01F8
01F8
01F8
01F8
01F8
01F8
01F8
01F8
01F8
01F8
01F8
01F8
01F8
01F8
01F8
01F8
01F8
01F8
01F8
01F8
01F8
01F8
01F8
01F8
01F8
01F8
01F8
01F8
01F8
01F8
01F8
01F8
01F8
01F8
01F8
03F8
03F8
07F0
0FF0
FFF0
FFE0
FFC0
FF80
FE00
ENDCHAR
STARTCHAR k
ENCODING 107
SWIDTH 556 0
DWIDTH 36 0
BBX 29 48 5 0
BITMAP
FC000000
FC000000
FC000000
FC000000
FC000000
FC000000
FC000000
FC000000
FC000000
FC000000
FC000000
FC000000
FC000000
FC000000
FC000000
FC001FE0
FC003FC0
FC007F80
FC00FF00
FC01FE00
FC03FC00
FC07F800
FC0FE000
FC1FC000
FC3F8000
FC7F0000
FCFE0000
FDFC0000
FFF80000
FFF00000
FFF80000
FFFC0000
FDFE0000
FCFF0000
FC7F8000
FC3FC000
FC1FC000
FC0FE000
FC0FF000
FC07F800
FC03FC00
FC01FE00
FC00FF00
FC007F80
FC003FC0
FC003FE0
FC001FF0
FC000FF8
ENDCHAR
STARTCHAR l
ENCODING 108
SWIDTH 278 0
DWIDTH 18 0
BBX 6 48 6 0
BITMAP
FC
FC
FC
FC
FC
FC
FC
FC
FC
FC
FC
FC
FC
FC
FC
FC
FC
FC
FC
FC
FC
FC
FC
FC
FC
FC
FC
FC
FC
FC
FC
FC
FC
FC
FC
FC
FC
FC
FC
FC
FC
FC
FC
FC
FC
FC
FC
FC
ENDCHAR
STARTCHAR m
ENCODING 109
SWIDTH 889 0
DWIDTH 57 0
BBX 46 33 5 0
BITMAP
FC0FE000FE00
FC7FF803FF80
FCFFFE0FFFC0
FDFFFE1FFFE0
FFFFFF3FFFF0
FFE07FFE07F8
FFC03FFC03F8
FF801FF801F8
FF001FF001FC
FE000FE000FC
FE000FE000FC
FE000FE000FC
FC000FC000FC
FC000FC000FC
FC000FC000FC
FC000FC000FC
FC000FC000FC
FC000FC000FC
FC000FC000FC
FC000FC000FC
FC000FC000FC
FC000FC000FC
FC000FC000FC
FC000FC000FC
FC000FC000FC
FC000FC000FC
FC000FC000FC
FC000FC000FC
FC000FC000FC
FC000FC000FC
FC000FC000FC
FC000FC000FC
FC000FC000FC
ENDCHAR
STARTCHAR n
ENCODING 110
SWIDTH 611 0
DWIDTH 39 0
BBX 29 33 5 0
BITMAP
FC07F800
FC3FFE00
FC7FFF80
FCFFFFC0
FDFFFFE0
FFF01FE0
FFC00FF0
FF8007F0
FF0003F0
FF0003F8
FE0003F8
FE0001F8
FE0001F8
FC0001F8
FC0001F8
FC0001F8
FC0001F8
FC0001F8
FC0001F8
FC0001F8
FC0001F8
FC0001F8
FC0001F8
FC0001F8
FC0001F8
FC0001F8
FC0001F8
FC0001F8
FC0001F8
FC0001F8
FC0001F8
FC0001F8
FC0001F8
ENDCHAR
STARTCHAR o
ENCODING 111
SWIDTH 611 0
DWIDTH 39 0
BBX 33 34 3 -1
BITMAP
000FF80000
007FFF0000
01FFFF8000
03FFFFE000
07FFFFF000
0FF80FF800
1FE003FC00
3FC001FC00
3F8000FE00
7F00007E00
7F00007F00
7E00003F00
FE00003F00
FC00003F80
FC00001F80
FC00001F80
FC00001F80
FC00001F80
FC00001F80
FC00001F80
FC00003F00
7E00003F00
7E00003F00
7E00007F00
3F00007E00
3F8000FE00
1FC001FC00
1FE003F800
0FF80FF800
07FFFFF000
03FFFFE000
00FFFF8000
007FFE0000
000FF80000
ENDCHAR
STARTCHAR p
ENCODING 112
SWIDTH 611 0
DWIDTH 39 0
BBX 31 46 5 -13
BITMAP
FC07F800
FC3FFE00
FC7FFF80
FDFFFFC0
FFFFFFE0
FFF01FF0
FFC007F0
FF8003F8
FF8001F8
FF0001FC
FE0000FC
FE0000FC
FE0000FC
FC0000FC
FC00007E
FC00007E
FC00007E
FC00007E
FC00007E
FC0000FC
FC0000FC
FE0000FC
FE0000FC
FE0001FC
FF0001F8
FF0003F8
FF8007F8
FFC00FF0
FFF01FE0
FDFFFFE0
FDFFFFC0
FC7FFF80
FC3FFE00
FC07F800
FC000000
FC000000
FC000000
FC000000
FC000000
FC000000
FC000000
FC000000
FC000000
FC000000
FC000000
FC000000
ENDCHAR
STARTCHAR q
ENCODING 113
SWIDTH 611 0
DWIDTH 39 0
BBX 31 46 3 -13
BITMAP
003FC07E
00FFF87E
03FFFC7E
07FFFF7E
0FFFFF7E
1FF01FFE
3FC00FFE
3F8003FE
7F0003FE
7E0001FE
7E0000FE
FE0000FE
FC0000FE
FC00007E
FC00007E
FC00007E
FC00007E
FC00007E
FC00007E
FC00007E
FC00007E
FE0000FE
7E0000FE
7E0000FE
7F0001FE
3F0003FE
3F8003FE
1FC00FFE
1FF01FFE
0FFFFFFE
07FFFF7E
03FFFC7E
00FFF87E
003FC07E
0000007E
0000007E
0000007E
0000007E
0000007E
0000007E
0000007E
0000007E
0000007E
0000007E
0000007E
0000007E
ENDCHAR
STARTCHAR r
ENCODING 114
SWIDTH 389 0
DWIDTH 25 0
BBX 18 33 5 0
BITMAP
FC1FC0
FC7FC0
FCFFC0
FDFFC0
FFFFC0
FFF840
FFE000
FF8000
FF8000
FF0000
FE0000
FE0000
FE0000
FC0000
FC0000
FC0000
FC0000
FC0000
FC0000
FC0000
FC0000
FC0000
FC0000
FC0000
FC0000
FC0000
FC0000
FC0000
FC0000
FC0000
FC0000
FC0000
FC0000
ENDCHAR
STARTCHAR s
ENCODING 115
SWIDTH 389 0
DWIDTH 25 0
BBX 20 34 2 -1
BITMAP
01FF00
07FFE0
1FFFE0
3FFFE0
7FFFE0
7F00C0
FE0040
FC0000
FC0000
FC0000
FC0000
FE0000
FF0000
7FC000
7FF000
3FFC00
0FFF00
07FF80
01FFC0
007FE0
001FE0
000FF0
0007F0
0003F0
0003F0
0003F0
0003F0
8007E0
F01FE0
FFFFC0
FFFFC0
FFFF80
7FFE00
0FF800
ENDCHAR
STARTCHAR t
ENCODING 116
SWIDTH 389 0
DWIDTH 25 0
BBX 22 43 1 -1
BITMAP
001800
00F800
01F800
01F800
01F800
01F800
01F800
01F800
01F800
FFFFFC
FFFFFC
FFFFFC
FFFFFC
FFFFFC
01F800
01F800
01F800
01F800
01F800
01F800
01F800
01F800
01F800
01F800
01F800
01F800
01F800
01F800
01F800
01F800
01F800
01F800
01F800
01F800
01F800
01FC00
01FC00
00FF04
00FFFC
007FFC
007FFC
001FFC
0007F8
ENDCHAR
STARTCHAR u
ENCODING 117
SWIDTH 611 0
DWIDTH 39 0
BBX 29 34 5 -1
BITMAP
FC0001F8
FC0001F8
FC0001F8
FC0001F8
FC0001F8
FC0001F8
FC0001F8
FC0001F8
FC0001F8
FC0001F8
FC0001F8
FC0001F8
FC0001F8
FC0001F8
FC0001F8
FC0001F8
FC0001F8
FC0001F8
FC0001F8
FC0001F8
FC0001F8
FC0003F8
FC0003F8
FE0003F8
FE0007F8
7E000FF8
7F000FF8
7F803FF8
3FC07FF8
3FFFFDF8
1FFFF9F8
0FFFF1F8
03FFE1F8
00FF0000
ENDCHAR
STARTCHAR v
ENCODING 118
SWIDTH 500 0
DWIDTH 32 0
BBX 31 33 0 0
BITMAP
FC00007E
7E0000FC
7E0000FC
3F0000FC
3F0001F8
3F0001F8
1F8001F8
1F8003F0
1F8003F0
0FC003F0
0FC007E0
0FC007E0
07E007C0
07E00FC0
07E00FC0
03F00F80
03F01F80
01F01F80
01F81F00
01F83F00
00F83F00
00FC3E00
00FC7E00
007E7E00
007E7C00
007EFC00
003FFC00
003FF800
003FF800
001FF000
001FF000
001FF000
000FE000
ENDCHAR
STARTCHAR w
ENCODING 119
SWIDTH 833 0
DWIDTH 53 0
BBX 52 33 0 0
BITMAP
FE0001FC0003F0
7E0001FE0003F0
7E0003FE0003E0
3E0003FE0007E0
3F0003FE0007E0
3F0007FF0007E0
1F0007DF000FC0
1F8007DF000FC0
1F800F9F800FC0
1F800F8F800F80
0FC00F8F801F80
0FC01F0FC01F80
0FC01F07C01F00
07C01F07C03F00
07E01E07C03F00
07E03E07E03E00
03E03E03E03E00
03F03E03E07E00
03F07C03F07C00
01F07C01F07C00
01F87C01F0FC00
01F8F801F8F800
00F8F800F8F800
00F8F800F8F800
00FCF000F9F000
007DF000FDF000
007DF0007DF000
007FF0007FF000
003FE0007FE000
003FE0003FE000
003FE0003FE000
003FC0003FC000
001FC0001FC000
ENDCHAR
STARTCHAR x
ENCODING 120
SWIDTH 500 0
DWIDTH 32 0
BBX 31 33 0 0
BITMAP
7F8001FC
3FC003F8
1FC003F0
0FE007F0
0FF00FE0
07F00FC0
03F81FC0
03F81F80
01FC3F00
00FE7F00
00FE7E00
007FFC00
003FFC00
003FF800
001FF000
000FF000
001FF000
001FF800
003FF800
007FFC00
007EFE00
00FEFE00
01FC7F00
01F83F80
03F83F80
07F01FC0
07E01FE0
0FE00FE0
1FC007F0
1FC007F8
3F8003F8
7F0001FC
FF0001FE
ENDCHAR
STARTCHAR y
ENCODING 121
SWIDTH 500 0
DWIDTH 32 0
BBX 30 47 1 -14
BITMAP
FC0000FC
FC0000F8
7E0001F8
7E0001F8
7E0001F0
3F0003F0
3F0003F0
3F0003E0
1F8007E0
1F8007E0
0F8007C0
0FC00FC0
0FC00FC0
07C00F80
07E01F80
07E01F00
03E01F00
03F03F00
03F03E00
01F03E00
01F87E00
00F87C00
00F87C00
00FCFC00
007CF800
007CF800
007FF800
003FF000
003FF000
003FE000
001FE000
001FE000
000FC000
000FC000
000FC000
000F8000
001F8000
001F8000
003F0000
003F0000
007E0000
01FE0000
3FFC0000
3FF80000
3FF00000
3FE00000
3F800000
ENDCHAR
STARTCHAR z
ENCODING 122
SWIDTH 500 0
DWIDTH 32 0
BBX 27 33 3 0
BITMAP
FFFFFF80
FFFFFF80
FFFFFF80
FFFFFF80
FFFFFF80
00003F80
00007F00
00007E00
0000FC00
0001F800
0003F800
0007F000
0007E000
000FC000
001F8000
003F0000
007F0000
00FE0000
00FC0000
01F80000
03F00000
07E00000
0FE00000
1FC00000
1F800000
3F000000
7E000000
FE000000
FFFFFFE0
FFFFFFE0
FFFFFFE0
FFFFFFE0
FFFFFFE0
ENDCHAR
STARTCHAR braceleft
ENCODING 123
SWIDTH 333 0
DWIDTH 21 0
BBX 18 57 2 -9
BITMAP
001FC0
007FC0
00FFC0
01FFC0
01FE00
03F800
03F000
03F000
03F000
03F000
03F000
03F000
03F000
03F000
03F000
03F000
03F000
03F000
03F000
03F000
03F000
03F000
07F000
07F000
0FE000
1FC000
FF8000
FF0000
FE0000
FF8000
7FC000
1FE000
0FE000
07F000
03F000
03F000
03F000
03F000
03F000
03F000
03F000
03F000
03F000
03F000
03F000
03F000
03F000
03F000
03F000
03F000
03F000
03F800
01FE00
01FFC0
00FFC0
007FC0
001FC0
ENDCHAR
STARTCHAR bar
ENCODING 124
SWIDTH 222 0
DWIDTH 14 0
BBX 6 64 4 -16
BITMAP
FC
FC
FC
FC
FC
FC
FC
FC
FC
FC
FC
FC
FC
FC
FC
FC
FC
FC
FC
FC
FC
FC
FC
FC
FC
FC
FC
FC
FC
FC
FC
FC
FC
FC
FC
FC
FC
FC
FC
FC
FC
FC
FC
FC
FC
FC
FC
FC
FC
FC
FC
FC
FC
FC
FC
FC
FC
FC
FC
FC
FC
FC
FC
FC
ENDCHAR
STARTCHAR braceright
ENCODING 125
SWIDTH 333 0
DWIDTH 21 0
BBX 18 57 1 -9
BITMAP
FE0000
FF8000
FFC000
FFE000
1FE000
07F000
03F000
03F000
03F000
03F000
03F000
03F000
03F000
03F000
03F000
03F000
03F000
03F000
03F000
03F000
03F000
03F000
03F800
03F800
01FC00
01FE00
00FFC0
003FC0
001FC0
007FC0
00FF80
01FE00
01FC00
03F800
03F000
03F000
03F000
03F000
03F000
03F000
03F000
03F000
03F000
03F000
03F000
03F000
03F000
03F000
03F000
03F000
03F000
07F000
1FE000
FFE000
FFC000
FF8000
FE0000
ENDCHAR
STARTCHAR asciitilde
ENCODING 126
SWIDTH 600 0
DWIDTH 38 0
BBX 30 10 4 11
BITMAP
07E00010
1FFC0038
3FFF8038
7FFFE0FC
7FFFFFFC
FE3FFFF8
780FFFF0
7003FFE0
20007FC0
20000600
ENDCHAR
STARTCHAR Zcaron
ENCODING 142
SWIDTH 556 0
DWIDTH 36 0
BBX 31 57 2 0
BITMAP
01F00F80
00F81F00
007C3E00
007C3E00
003E7C00
001FF800
001FF800
000FF000
0007E000
00000000
00000000
00000000
7FFFFFFE
7FFFFFFE
7FFFFFFE
7FFFFFFE
7FFFFFFE
7FFFFFFE
000001FC
000003F8
000007F8
00000FF0
00000FE0
00001FE0
00003FC0
00003F80
00007F80
0000FF00
0000FE00
0001FC00
0003FC00
0003F800
0007F000
000FF000
000FE000
001FC000
003FC000
007F8000
007F0000
00FF0000
01FE0000
01FC0000
03FC0000
07F80000
07F00000
0FE00000
1FE00000
1FC00000
3F800000
7F800000
7F000000
FFFFFFFE
FFFFFFFE
FFFFFFFE
FFFFFFFE
FFFFFFFE
FFFFFFFE
ENDCHAR
STARTCHAR zcaron
ENCODING 158
SWIDTH 500 0
DWIDTH 32 0
BBX 27 46 3 0
BITMAP
0F807C00
07C0F800
03E1F000
03E1F000
01F3E000
00FFC000
00FFC000
007F8000
003F0000
00000000
00000000
00000000
00000000
FFFFFF80
FFFFFF80
FFFFFF80
FFFFFF80
FFFFFF80
00003F80
00007F00
00007E00
0000FC00
0001F800
0003F800
0007F000
0007E000
000FC000
001F8000
003F0000
007F0000
00FE0000
00FC0000
01F80000
03F00000
07E00000
0FE00000
1FC00000
1F800000
3F000000
7E000000
FE000000
FFFFFFE0
FFFFFFE0
FFFFFFE0
FFFFFFE0
FFFFFFE0
ENDCHAR
STARTCHAR nonbreakingspace
ENCODING 160
SWIDTH 278 0
DWIDTH 18 0
BBX 1 1 0 0
BITMAP
00
ENDCHAR
STARTCHAR exclamdown
ENCODING 161
SWIDTH 389 0
DWIDTH 25 0
BBX 7 45 9 -12
BITMAP
FE
FE
FE
FE
FE
FE
FE
00
00
00
00
00
00
7C
7C
7C
7C
7C
7C
7E
7E
7E
7E
7E
7E
FE
FE
FE
FE
FE
FE
FE
FE
FE
FE
FE
FE
FE
FE
FE
FE
FE
FE
FE
FE
ENDCHAR
STARTCHAR cent
ENCODING 162
SWIDTH 556 0
DWIDTH 36 0
BBX 24 49 6 -9
BITMAP
00001E
00001E
00001E
00001C
00003C
00003C
000038
000FFC
007FFF
01FFFF
03FFFF
07FFFF
0FF8F7
1FE0E0
3FC1E0
3F81E0
7F01C0
7F03C0
7E03C0
FE03C0
FC0380
FC0780
FC0780
FC0700
FC0F00
FC0F00
FC0F00
FC0E00
7E1E00
7E1E00
7F1C00
3F3C00
3FBC00
1FFC00
1FF801
0FF807
07FFFF
03FFFF
00FFFF
00FFFF
00FFFC
00E000
01E000
01E000
01C000
03C000
03C000
038000
078000
ENDCHAR
STARTCHAR sterling
ENCODING 163
SWIDTH 556 0
DWIDTH 36 0
BBX 29 45 4 0
BITMAP
00007FC0
0003FFF8
000FFFF8
001FFFF0
003FFFF0
007FFFF0
00FF8030
00FE0000
01FC0000
01FC0000
01F80000
03F80000
03F00000
03F00000
03F00000
03F00000
03F00000
03F00000
03F00000
7FFFFC00
7FFFFC00
7FFFFC00
7FFFFC00
03F00000
03F00000
03F00000
03F00000
03F00000
03F00000
03F00000
03F00000
03F00000
03F00000
03F00000
03F00000
03F00000
03F00000
03F00000
03F00000
FFFFFFF0
FFFFFFF0
FFFFFFF0
FFFFFFF0
FFFFFFF0
FFFFFFF0
ENDCHAR
STARTCHAR currency
ENCODING 164
SWIDTH 556 0
DWIDTH 36 0
BBX 32 32 2 6
BITMAP
300FF00C
787FFE1E
FDFFFFBF
FFFFFFFF
7FFFFFFE
3FFC3FFC
1FE007F8
3FC003FC
3F8001FC
7F0000FE
7E00007E
7E00007E
FC00003F
FC00003F
FC00003F
FC00003F
FC00003F
FC00003F
FC00003F
FC00003F
7E00007E
7E00007E
7F0000FE
3F8001FC
3FC003FC
1FE007F8
3FFC3FFC
7FFFFFFE
FFFFFFFF
FDFFFFBF
787FFE1E
300FF00C
ENDCHAR
STARTCHAR yen
ENCODING 165
SWIDTH 556 0
DWIDTH 36 0
BBX 34 45 1 0
BITMAP
FE00001FC0
7F00003F80
7F00003F80
3F80007F00
3F80007F00
1FC000FE00
1FC000FE00
0FE001FC00
0FE001F800
07F003F800
03F003F000
03F807F000
01F807E000
01FC0FE000
00FC0FC000
00FE1FC000
007E1F8000
007F3F8000
003F3F0000
001FFE0000
001FFE0000
07FFFFF800
07FFFFF800
07FFFFF800
07FFFFF800
0003F00000
0003F00000
0003F00000
0003F00000
0003F00000
0003F00000
07FFFFF800
07FFFFF800
07FFFFF800
07FFFFF800
0003F00000
0003F00000
0003F00000
0003F00000
0003F00000
0003F00000
0003F00000
0003F00000
0003F00000
0003F00000
ENDCHAR
STARTCHAR brokenbar
ENCODING 166
SWIDTH 222 0
DWIDTH 14 0
BBX 6 54 4 -11
BITMAP
FC
FC
FC
FC
FC
FC
FC
FC
FC
FC
FC
FC
FC
FC
FC
FC
FC
FC
FC
FC
FC
FC
00
00
00
00
00
00
00
00
00
00
FC
FC
FC
FC
FC
FC
FC
FC
FC
FC
FC
FC
FC
FC
FC
FC
FC
FC
FC
FC
FC
FC
ENDCHAR
STARTCHAR section
ENCODING 167
SWIDTH 556 0
DWIDTH 36 0
BBX 25 53 6 -8
BITMAP
007FE000
03FFFE00
0FFFFE00
1FFFFC00
3FFFFC00
7FE07C00
7F000400
FE000000
FC000000
FC000000
FC000000
FC000000
FE000000
7F000000
7FC00000
3FF00000
1FFE0000
0FFFC000
1FFFF000
3FFFF800
7E3FFE00
7C07FF00
FC01FF00
F8007F80
F8003F80
F8001F80
FC001F80
FE000F80
FF000F80
FF801F80
7FF01F00
3FFE3F00
1FFFFE00
0FFFFC00
03FFF800
00FFFC00
001FFE00
0003FF00
0000FF00
00003F00
00003F80
00001F80
00001F80
00001F80
00003F80
00007F00
6000FF00
FF07FE00
FFFFFC00
FFFFF800
FFFFF000
FFFFC000
0FFE0000
ENDCHAR
STARTCHAR dieresis
ENCODING 168
SWIDTH 278 0
DWIDTH 18 0
BBX 17 6 1 38
BITMAP
FC1F80
FC1F80
FC1F80
FC1F80
FC1F80
FC1F80
ENDCHAR
STARTCHAR copyright
ENCODING 169
SWIDTH 800 0
DWIDTH 51 0
BBX 47 46 3 -1
BITMAP
00001FF00000
0001FFFF0000
0007FFFFC000
001FFFFFF000
003FFEFFF800
00FFC007FE00
01FE0000FF00
03FC00007F80
07F000001FC0
0FE00FC00FC0
0FC07FF807E0
1FC0FFFE07F0
1F81FFFF03F0
3F03FFFF81F8
3F07F01F81F8
7E0FC00FC0FC
7E0F8007C0FC
7E1F8003E0FC
FC1F0003E07E
FC1F0000007E
FC1F0000007E
FC1E0000007E
FC1E0000007E
FC1E0000007E
FC1F0000007E
FC1F0000007E
FC1F0000007E
FC1F0003E0FE
7E1F8003C0FC
7E0F8007C0FC
7E0FC007C0FC
3F07F01F81F8
3F03FFFF81F8
1F81FFFF03F0
1FC0FFFE07F0
0FC07FF807E0
0FE00FE00FC0
07F000001FC0
03FC00007F80
01FE0000FF00
00FFC007FE00
003FFEFFF800
001FFFFFF000
0007FFFFC000
0001FFFF0000
00003FF80000
ENDCHAR
STARTCHAR ordfeminine
ENCODING 170
SWIDTH 361 0
DWIDTH 23 0
BBX 20 21 1 24
BITMAP
03FE00
0FFF80
1FFFE0
1FFFE0
1C07F0
1003F0
0001F0
0001F0
01FFF0
0FFFF0
3FFFF0
7FC1F0
7E01F0
FC01F0
FC01F0
FC03F0
7C07F0
7FFFF0
3FFFF0
1FFDF0
07F000
ENDCHAR
STARTCHAR guillemotleft
ENCODING 171
SWIDTH 556 0
DWIDTH 36 0
BBX 28 25 3 5
BITMAP
00FE07F0
00F807C0
01F80FC0
03F01F80
03E01F00
07E03F00
0FC07E00
0F807C00
1F80FC00
3F01F800
7E03F000
7E03F000
FC07E000
7E03F000
7E03F000
3F01F800
1F80FC00
0F807C00
0FC07E00
07E03F00
03E01F00
03F01F80
01F80FC0
00F807C0
00FE07F0
ENDCHAR
STARTCHAR logicalnot
ENCODING 172
SWIDTH 600 0
DWIDTH 38 0
BBX 33 19 3 7
BITMAP
FFFFFFFF80
FFFFFFFF80
FFFFFFFF80
FFFFFFFF80
FFFFFFFF80
FFFFFFFF80
0000001F80
0000001F80
0000001F80
0000001F80
0000001F80
0000001F80
0000001F80
0000001F80
0000001F80
0000001F80
0000001F80
0000001F80
0000001F80
ENDCHAR
STARTCHAR hyphen.dup1
ENCODING 173
SWIDTH 333 0
DWIDTH 21 0
BBX 17 5 2 15
BITMAP
FFFF80
FFFF80
FFFF80
FFFF80
FFFF80
ENDCHAR
STARTCHAR registered
ENCODING 174
SWIDTH 800 0
DWIDTH 51 0
BBX 47 46 3 -1
BITMAP
00001FF00000
0001FFFF0000
0007FFFFC000
001FFFFFF000
003FFEFFF800
00FFC007FE00
01FE0000FF00
03FC00007F80
07F000001FC0
0FE000000FC0
0FC3FFF807E0
1FC3FFFE07F0
1F83FFFF03F0
3F03FFFF81F8
3F03E01F81F8
7E03E00F80FC
7E03E007C0FC
7E03E007C0FC
FC03E007C07E
FC03E00F807E
FC03E01F807E
FC03FFFF807E
FC03FFFF007E
FC03FFFE007E
FC03FFE0007E
FC03E3E0007E
FC03E1F0007E
FC03E0F800FE
7E03E0F800FC
7E03E07C00FC
7E03E03C00FC
3F03E03E01F8
3F03E01F01F8
1F83E01F03F0
1FC3E00F87F0
0FC3E007C7E0
0FE000000FC0
07F000001FC0
03FC00007F80
01FE0000FF00
00FFC007FE00
003FFEFFF800
001FFFFFF000
0007FFFFC000
0001FFFF0000
00003FF80000
ENDCHAR
STARTCHAR macron
ENCODING 175
SWIDTH 278 0
DWIDTH 18 0
BBX 19 4 -1 39
BITMAP
FFFFE0
FFFFE0
FFFFE0
FFFFE0
ENDCHAR
STARTCHAR degree
ENCODING 176
SWIDTH 400 0
DWIDTH 26 0
BBX 18 18 4 27
BITMAP
03F000
0FFC00
1FFE00
3FFF00
7E1F80
7C0F80
F807C0
F003C0
F003C0
F003C0
F003C0
F807C0
7C0F80
7E1F80
3FFF00
1FFE00
0FFC00
03F000
ENDCHAR
STARTCHAR plusminus
ENCODING 177
SWIDTH 600 0
DWIDTH 38 0
BBX 32 32 3 0
BITMAP
0007E000
0007E000
0007E000
0007E000
0007E000
0007E000
0007E000
0007E000
0007E000
FFFFFFFF
FFFFFFFF
FFFFFFFF
FFFFFFFF
FFFFFFFF
FFFFFFFF
0007E000
0007E000
0007E000
0007E000
0007E000
0007E000
0007E000
0007E000
0007E000
00000000
00000000
FFFFFFFF
FFFFFFFF
FFFFFFFF
FFFFFFFF
FFFFFFFF
FFFFFFFF
ENDCHAR
STARTCHAR twosuperior
ENCODING 178
SWIDTH 361 0
DWIDTH 23 0
BBX 19 27 2 18
BITMAP
0FF800
7FFE00
7FFF80
7FFFC0
7FFFC0
600FE0
0007E0
0007E0
0007E0
0007E0
000FC0
000FC0
001F80
003F00
007E00
00FE00
01FC00
03F800
07F000
1FC000
3F8000
7F0000
FC0000
FFFFE0
FFFFE0
FFFFE0
FFFFE0
ENDCHAR
STARTCHAR threesuperior
ENCODING 179
SWIDTH 361 0
DWIDTH 23 0
BBX 19 28 2 17
BITMAP
0FF800
7FFE00
7FFF80
7FFFC0
7FFFC0
400FE0
0007E0
0007E0
000FE0
000FC0
003FC0
0FFF00
0FFE00
0FF800
0FFF00
01FF80
001FC0
000FE0
0007E0
0007E0
0007E0
000FE0
801FE0
FFFFC0
FFFFC0
FFFF80
FFFE00
3FF000
ENDCHAR
STARTCHAR acute
ENCODING 180
SWIDTH 278 0
DWIDTH 18 0
BBX 13 9 4 37
BITMAP
03F8
07F0
0FE0
0FC0
1F80
3F00
3E00
7C00
F800
ENDCHAR
STARTCHAR mu
ENCODING 181
SWIDTH 611 0
DWIDTH 39 0
BBX 29 46 5 -13
BITMAP
FC0001F8
FC0001F8
FC0001F8
FC0001F8
FC0001F8
FC0001F8
FC0001F8
FC0001F8
FC0001F8
FC0001F8
FC0001F8
FC0001F8
FC0001F8
FC0001F8
FC0001F8
FC0001F8
FC0001F8
FC0001F8
FC0001F8
FC0001F8
FC0001F8
FC0003F8
FC0003F8
FE0003F8
FE0007F8
FE000FF8
FF000FF8
FF803FF8
FFC07FF8
FFFFFDF8
FFFFF9F8
FFFFF1F8
FFFFE1F8
FCFF0000
FC000000
FC000000
FC000000
FC000000
FC000000
FC000000
FC000000
FC000000
FC000000
FC000000
FC000000
FC000000
ENDCHAR
STARTCHAR paragraph
ENCODING 182
SWIDTH 600 0
DWIDTH 38 0
BBX 33 52 1 -7
BITMAP
003FFFFF80
01FFFFFF80
07FFFFFF80
1FFFFFFF80
3FFFF01F80
3FFFF01F80
7FFFF01F80
7FFFF01F80
7FFFF01F80
FFFFF01F80
FFFFF01F80
FFFFF01F80
FFFFF01F80
FFFFF01F80
FFFFF01F80
7FFFF01F80
7FFFF01F80
3FFFF01F80
3FFFF01F80
1FFFF01F80
0FFFF01F80
03FFF01F80
00FFF01F80
0003F01F80
0003F01F80
0003F01F80
0003F01F80
0003F01F80
0003F01F80
0003F01F80
0003F01F80
0003F01F80
0003F01F80
0003F01F80
0003F01F80
0003F01F80
0003F01F80
0003F01F80
0003F01F80
0003F01F80
0003F01F80
0003F01F80
0003F01F80
0003F01F80
0003F01F80
0003F01F80
0003F01F80
0003F01F80
0003F01F80
0003F01F80
0003F01F80
0003F01F80
ENDCHAR
STARTCHAR periodcentered
ENCODING 183
SWIDTH 278 0
DWIDTH 18 0
BBX 8 8 5 15
BITMAP
3C
7E
FF
FF
FF
FF
7E
3C
ENDCHAR
STARTCHAR cedilla
ENCODING 184
SWIDTH 278 0
DWIDTH 18 0
BBX 14 14 6 -14
BITMAP
0380
0700
0F00
0E00
1FF0
3FF8
00FC
007C
007C
007C
40F8
7FF8
FFE0
3F80
ENDCHAR
STARTCHAR onesuperior
ENCODING 185
SWIDTH 361 0
DWIDTH 23 0
BBX 13 27 3 18
BITMAP
01F8
03F8
0FF8
1FF8
7FF8
FDF8
79F8
21F8
01F8
01F8
01F8
01F8
01F8
01F8
01F8
01F8
01F8
01F8
01F8
01F8
01F8
01F8
01F8
01F8
01F8
01F8
01F8
ENDCHAR
STARTCHAR ordmasculine
ENCODING 186
SWIDTH 397 0
DWIDTH 25 0
BBX 22 21 2 24
BITMAP
01FE00
07FF80
1FFFE0
3FFFF0
3F03F0
7E01F8
7C00F8
FC00FC
F8007C
F8007C
F8007C
F8007C
F8007C
FC00FC
7C00F8
7E01F8
3F03F0
1FFFE0
0FFFC0
07FF80
01FE00
ENDCHAR
STARTCHAR guillemotright
ENCODING 187
SWIDTH 556 0
DWIDTH 36 0
BBX 28 25 4 5
BITMAP
FE07F000
3E01F000
3F01F800
1F80FC00
0F807C00
0FC07E00
07E03F00
03E01F00
03F01F80
01F80FC0
00FC07E0
00FC07E0
007E03F0
00FC07E0
00FC07E0
01F80FC0
03F01F80
03E01F00
07E03F00
0FC07E00
0F807C00
1F80FC00
3F01F800
3E01F000
FE07F000
ENDCHAR
STARTCHAR onequarter
ENCODING 188
SWIDTH 834 0
DWIDTH 53 0
BBX 49 47 2 -1
BITMAP
000000003E0000
01F800003C0000
07F800007C0000
0FF80000780000
1FF80000F80000
3FF80001F00000
FDF80001F00000
79F80003E00000
31F80003C00000
01F80007C00000
01F80007800000
01F8000F800000
01F8001F000000
01F8001E000000
01F8003E000000
01F8003C000000
01F8007C000000
01F800F8000000
01F800F0000000
01F801F003FC00
01F801E007FC00
01F803E007FC00
01F807C00FFC00
01F807801FFC00
01F80F801EFC00
01F80F003EFC00
01F81F007CFC00
01F83E0078FC00
00003E00F8FC00
00007C01F0FC00
00007801E0FC00
0000F803E0FC00
0000F007C0FC00
0001F007C0FC00
0003E00F80FC00
0003C01F00FC00
0007C01F00FC00
0007803FFFFF80
000F803FFFFF80
001F003FFFFF80
001E003FFFFF80
003E000000FC00
003C000000FC00
007C000000FC00
00F8000000FC00
00F8000000FC00
01F00000000000
ENDCHAR
STARTCHAR onehalf
ENCODING 189
SWIDTH 834 0
DWIDTH 53 0
BBX 49 47 2 -1
BITMAP
00000000F80000
01F80000F00000
07F80001F00000
0FF80001E00000
1FF80003E00000
3FF80007C00000
FDF80007C00000
79F8000F800000
31F8000F000000
01F8001F000000
01F8001E000000
01F8003E000000
01F8007C000000
01F80078000000
01F800F8000000
01F800F0000000
01F801F0000000
01F803E0000000
01F803C0000000
01F807C03FE000
01F80781FFF800
01F80F81FFFE00
01F81F01FFFF00
01F81E01FFFF00
01F83E01803F80
01F83C00001F80
01F87C00001F80
01F8F800001F80
0000F800001F80
0001F000003F00
0001E000003F00
0003E000007E00
0003C00000FC00
0007C00001F800
000F800003F800
000F000007F000
001F00000FE000
001E00001FC000
003E00007F0000
007C0000FE0000
00780001FC0000
00F80003F00000
00F00003FFFF80
01F00003FFFF80
03E00003FFFF80
03E00003FFFF80
07C00000000000
ENDCHAR
STARTCHAR threequarters
ENCODING 190
SWIDTH 834 0
DWIDTH 53 0
BBX 49 47 2 -1
BITMAP
0000000007C000
0FF80000078000
7FFE00000F8000
7FFF80000F0000
7FFFC0001F0000
7FFFC0003E0000
400FE0003E0000
0007E0007C0000
0007E000780000
000FE000F80000
000FC000F00000
003FC001F00000
0FFF0003E00000
0FFE0003C00000
0FF80007C00000
0FFF0007800000
01FF800F800000
001FC01F000000
000FE01E000000
0007E03E03FC00
0007E03C07FC00
0007E07C07FC00
000FE0F80FFC00
801FE0F01FFC00
FFFFC1F01EFC00
FFFFC1E03EFC00
FFFF83E07CFC00
FFFE07C078FC00
3FF007C0F8FC00
00000F81F0FC00
00000F01E0FC00
00001F03E0FC00
00001E07C0FC00
00003E07C0FC00
00007C0F80FC00
0000781F00FC00
0000F81F00FC00
0000F03FFFFF80
0001F03FFFFF80
0003E03FFFFF80
0003C03FFFFF80
0007C00000FC00
0007800000FC00
000F800000FC00
001F000000FC00
001F000000FC00
003E0000000000
ENDCHAR
STARTCHAR questiondown
ENCODING 191
SWIDTH 500 0
DWIDTH 32 0
BBX 25 46 2 -13
BITMAP
003F8000
003F8000
003F8000
003F8000
003F8000
003F8000
003F8000
00000000
00000000
00000000
00000000
00000000
00000000
001F8000
001F8000
003F8000
003F0000
003F0000
007F0000
007E0000
00FE0000
01FC0000
03F80000
07F80000
07F00000
0FE00000
1FC00000
3F800000
3F000000
7F000000
7E000000
7E000000
7E000000
FC000000
FC000000
7E000000
7E000000
7F000000
7F800180
3FC00780
3FFFFF80
1FFFFF80
0FFFFF80
07FFFF80
01FFFE00
003FF000
ENDCHAR
STARTCHAR Agrave
ENCODING 192
SWIDTH 722 0
DWIDTH 46 0
BBX 44 57 1 0
BITMAP
0007F0000000
0003F8000000
0001F8000000
0000FC000000
00007E000000
00003E000000
00001F000000
00000F000000
000007800000
000000000000
000000000000
000000000000
00001F800000
00003FC00000
00003FC00000
00003FC00000
00007FE00000
00007FE00000
0000FFF00000
0000FBF00000
0001F9F80000
0001F1F80000
0001F0F80000
0003F0FC0000
0003E0FC0000
0007E07E0000
0007C07E0000
000FC03E0000
000FC03F0000
000F803F0000
001F801F8000
001F001F8000
003F000FC000
003F000FC000
007E000FC000
007E0007E000
007C0007E000
00FC0003F000
00FC0003F000
01F80001F800
01F80001F800
03FFFFFFF800
03FFFFFFFC00
03FFFFFFFC00
07FFFFFFFE00
07FFFFFFFE00
0FC000007E00
0FC000003F00
0FC000003F00
1F8000001F80
1F8000001F80
3F0000000FC0
3F0000000FC0
7E0000000FC0
7E00000007E0
7E00000007E0
FC00000003F0
ENDCHAR
STARTCHAR Aacute
ENCODING 193
SWIDTH 722 0
DWIDTH 46 0
BBX 44 57 1 0
BITMAP
000001FC0000
000003F80000
000007F00000
000007E00000
00000FC00000
00001F800000
00001F000000
00003E000000
00007C000000
000000000000
000000000000
000000000000
00001F800000
00003FC00000
00003FC00000
00003FC00000
00007FE00000
00007FE00000
0000FFF00000
0000FBF00000
0001F9F80000
0001F1F80000
0001F0F80000
0003F0FC0000
0003E0FC0000
0007E07E0000
0007C07E0000
000FC03E0000
000FC03F0000
000F803F0000
001F801F8000
001F001F8000
003F000FC000
003F000FC000
007E000FC000
007E0007E000
007C0007E000
00FC0003F000
00FC0003F000
01F80001F800
01F80001F800
03FFFFFFF800
03FFFFFFFC00
03FFFFFFFC00
07FFFFFFFE00
07FFFFFFFE00
0FC000007E00
0FC000003F00
0FC000003F00
1F8000001F80
1F8000001F80
3F0000000FC0
3F0000000FC0
7E0000000FC0
7E00000007E0
7E00000007E0
FC00000003F0
ENDCHAR
STARTCHAR Acircumflex
ENCODING 194
SWIDTH 722 0
DWIDTH 46 0
BBX 44 57 1 0
BITMAP
00001F800000
00003FC00000
00007FE00000
00007FE00000
0000F9F00000
0001F0F80000
0001F0F80000
0003E07C0000
0007C03E0000
000000000000
000000000000
000000000000
00001F800000
00003FC00000
00003FC00000
00003FC00000
00007FE00000
00007FE00000
0000FFF00000
0000FBF00000
0001F9F80000
0001F1F80000
0001F0F80000
0003F0FC0000
0003E0FC0000
0007E07E0000
0007C07E0000
000FC03E0000
000FC03F0000
000F803F0000
001F801F8000
001F001F8000
003F000FC000
003F000FC000
007E000FC000
007E0007E000
007C0007E000
00FC0003F000
00FC0003F000
01F80001F800
01F80001F800
03FFFFFFF800
03FFFFFFFC00
03FFFFFFFC00
07FFFFFFFE00
07FFFFFFFE00
0FC000007E00
0FC000003F00
0FC000003F00
1F8000001F80
1F8000001F80
3F0000000FC0
3F0000000FC0
7E0000000FC0
7E00000007E0
7E00000007E0
FC00000003F0
ENDCHAR
STARTCHAR Atilde
ENCODING 195
SWIDTH 722 0
DWIDTH 46 0
BBX 44 56 1 0
BITMAP
0001F0038000
0007FC038000
0007FF870000
000FFFFF0000
000E1FFE0000
001C03FE0000
001C00F80000
000000000000
000000000000
000000000000
000000000000
00001F800000
00003FC00000
00003FC00000
00003FC00000
00007FE00000
00007FE00000
0000FFF00000
0000FBF00000
0001F9F80000
0001F1F80000
0001F0F80000
0003F0FC0000
0003E0FC0000
0007E07E0000
0007C07E0000
000FC03E0000
000FC03F0000
000F803F0000
001F801F8000
001F001F8000
003F000FC000
003F000FC000
007E000FC000
007E0007E000
007C0007E000
00FC0003F000
00FC0003F000
01F80001F800
01F80001F800
03FFFFFFF800
03FFFFFFFC00
03FFFFFFFC00
07FFFFFFFE00
07FFFFFFFE00
0FC000007E00
0FC000003F00
0FC000003F00
1F8000001F80
1F8000001F80
3F0000000FC0
3F0000000FC0
7E0000000FC0
7E00000007E0
7E00000007E0
FC00000003F0
ENDCHAR
STARTCHAR Adieresis
ENCODING 196
SWIDTH 722 0
DWIDTH 46 0
BBX 44 55 1 0
BITMAP
0003F07E0000
0003F07E0000
0003F07E0000
0003F07E0000
0003F07E0000
0003F07E0000
000000000000
000000000000
000000000000
000000000000
00001F800000
00003FC00000
00003FC00000
00003FC00000
00007FE00000
00007FE00000
0000FFF00000
0000FBF00000
0001F9F80000
0001F1F80000
0001F0F80000
0003F0FC0000
0003E0FC0000
0007E07E0000
0007C07E0000
000FC03E0000
000FC03F0000
000F803F0000
001F801F8000
001F001F8000
003F000FC000
003F000FC000
007E000FC000
007E0007E000
007C0007E000
00FC0003F000
00FC0003F000
01F80001F800
01F80001F800
03FFFFFFF800
03FFFFFFFC00
03FFFFFFFC00
07FFFFFFFE00
07FFFFFFFE00
0FC000007E00
0FC000003F00
0FC000003F00
1F8000001F80
1F8000001F80
3F0000000FC0
3F0000000FC0
7E0000000FC0
7E00000007E0
7E00000007E0
FC00000003F0
ENDCHAR
STARTCHAR Aring
ENCODING 197
SWIDTH 722 0
DWIDTH 46 0
BBX 44 60 1 0
BITMAP
00001F000000
00007FC00000
0000FFE00000
0000E0E00000
0001C0700000
0001C0700000
0001C0700000
0001C0700000
0001C0700000
0000E0E00000
0000FFE00000
00007FC00000
00001F000000
000000000000
000000000000
00001F800000
00003FC00000
00003FC00000
00003FC00000
00007FE00000
00007FE00000
0000FFF00000
0000FBF00000
0001F9F80000
0001F1F80000
0001F0F80000
0003F0FC0000
0003E0FC0000
0007E07E0000
0007C07E0000
000FC03E0000
000FC03F0000
000F803F0000
001F801F8000
001F001F8000
003F000FC000
003F000FC000
007E000FC000
007E0007E000
007C0007E000
00FC0003F000
00FC0003F000
01F80001F800
01F80001F800
03FFFFFFF800
03FFFFFFFC00
03FFFFFFFC00
07FFFFFFFE00
07FFFFFFFE00
0FC000007E00
0FC000003F00
0FC000003F00
1F8000001F80
1F8000001F80
3F0000000FC0
3F0000000FC0
7E0000000FC0
7E00000007E0
7E00000007E0
FC00000003F0
ENDCHAR
STARTCHAR AE
ENCODING 198
SWIDTH 944 0
DWIDTH 60 0
BBX 56 45 0 0
BITMAP
0000001FFFFFFF
0000001FFFFFFF
0000003FFFFFFF
0000007FFFFFFF
0000007FFFFFFF
000000FEFFFFFF
000000FEFC0000
000001FCFC0000
000003F8FC0000
000003F8FC0000
000007F0FC0000
000007F0FC0000
00000FE0FC0000
00001FC0FC0000
00001FC0FC0000
00003F80FC0000
00003F80FC0000
00007F00FC0000
0000FE00FC0000
0000FE00FFFFFC
0001FC00FFFFFC
0001FC007FFFFC
0003F8007FFFFC
0007F0007FFFFC
0007F0007FFFFC
000FE0007E0000
000FE0007E0000
001FC0007E0000
003FC0007E0000
003FFFFFFE0000
007FFFFFFE0000
007FFFFFFE0000
00FFFFFFFE0000
01FFFFFFFE0000
01FC00007E0000
03F800007E0000
03F800007E0000
07F000003F0000
0FF000003F0000
0FE000003FFFFF
1FC000003FFFFF
1FC000003FFFFF
3F8000003FFFFF
7F8000003FFFFF
FF0000003FFFFF
ENDCHAR
STARTCHAR Ccedilla
ENCODING 199
SWIDTH 611 0
DWIDTH 39 0
BBX 34 59 3 -14
BITMAP
00003FF800
0001FFFF80
000FFFFFC0
003FFFFFC0
007FFFFF80
00FFFFFF80
03FFC00780
07FE000080
07F8000000
0FF0000000
1FE0000000
1FC0000000
3F80000000
3F80000000
7F00000000
7F00000000
7E00000000
7E00000000
FE00000000
FC00000000
FC00000000
FC00000000
FC00000000
FC00000000
FC00000000
FC00000000
FC00000000
FC00000000
7E00000000
7E00000000
7E00000000
7F00000000
3F80000000
3F80000000
1FC0000000
1FE0000000
0FF0000000
0FF8000000
07FE000080
03FF800380
01FFFFFF80
00FFFFFFC0
003FFFFFC0
000FFFFFC0
0003FFFFC0
00007FFE00
00001C0000
0000380000
0000700000
0000FF8000
0000FFC000
0001CFE000
000003E000
000003E000
000003E000
000407E000
0003FFC000
0007FF8000
0001FC0000
ENDCHAR
STARTCHAR Egrave
ENCODING 200
SWIDTH 556 0
DWIDTH 36 0
BBX 25 57 6 0
BITMAP
1FC00000
0FE00000
07E00000
03F00000
01F80000
00F80000
007C0000
003C0000
001E0000
00000000
00000000
00000000
FFFFFF80
FFFFFF80
FFFFFF80
FFFFFF80
FFFFFF80
FFFFFF80
FC000000
FC000000
FC000000
FC000000
FC000000
FC000000
FC000000
FC000000
FC000000
FC000000
FC000000
FC000000
FC000000
FFFFFE00
FFFFFE00
FFFFFE00
FFFFFE00
FFFFFE00
FFFFFE00
FC000000
FC000000
FC000000
FC000000
FC000000
FC000000
FC000000
FC000000
FC000000
FC000000
FC000000
FC000000
FC000000
FC000000
FFFFFF80
FFFFFF80
FFFFFF80
FFFFFF80
FFFFFF80
FFFFFF80
ENDCHAR
STARTCHAR Eacute
ENCODING 201
SWIDTH 556 0
DWIDTH 36 0
BBX 25 57 6 0
BITMAP
0007F000
000FE000
001FC000
001F8000
003F0000
007E0000
007C0000
00F80000
01F00000
00000000
00000000
00000000
FFFFFF80
FFFFFF80
FFFFFF80
FFFFFF80
FFFFFF80
FFFFFF80
FC000000
FC000000
FC000000
FC000000
FC000000
FC000000
FC000000
FC000000
FC000000
FC000000
FC000000
FC000000
FC000000
FFFFFE00
FFFFFE00
FFFFFE00
FFFFFE00
FFFFFE00
FFFFFE00
FC000000
FC000000
FC000000
FC000000
FC000000
FC000000
FC000000
FC000000
FC000000
FC000000
FC000000
FC000000
FC000000
FC000000
FFFFFF80
FFFFFF80
FFFFFF80
FFFFFF80
FFFFFF80
FFFFFF80
ENDCHAR
STARTCHAR Ecircumflex
ENCODING 202
SWIDTH 556 0
DWIDTH 36 0
BBX 25 57 6 0
BITMAP
007E0000
00FF0000
01FF8000
01FF8000
03E7C000
07C3E000
07C3E000
0F81F000
1F00F800
00000000
00000000
00000000
FFFFFF80
FFFFFF80
FFFFFF80
FFFFFF80
FFFFFF80
FFFFFF80
FC000000
FC000000
FC000000
FC000000
FC000000
FC000000
FC000000
FC000000
FC000000
FC000000
FC000000
FC000000
FC000000
FFFFFE00
FFFFFE00
FFFFFE00
FFFFFE00
FFFFFE00
FFFFFE00
FC000000
FC000000
FC000000
FC000000
FC000000
FC000000
FC000000
FC000000
FC000000
FC000000
FC000000
FC000000
FC000000
FC000000
FFFFFF80
FFFFFF80
FFFFFF80
FFFFFF80
FFFFFF80
FFFFFF80
ENDCHAR
STARTCHAR Edieresis
ENCODING 203
SWIDTH 556 0
DWIDTH 36 0
BBX 25 55 6 0
BITMAP
0FC1F800
0FC1F800
0FC1F800
0FC1F800
0FC1F800
0FC1F800
00000000
00000000
00000000
00000000
FFFFFF80
FFFFFF80
FFFFFF80
FFFFFF80
FFFFFF80
FFFFFF80
FC000000
FC000000
FC000000
FC000000
FC000000
FC000000
FC000000
FC000000
FC000000
FC000000
FC000000
FC000000
FC000000
FFFFFE00
FFFFFE00
FFFFFE00
FFFFFE00
FFFFFE00
FFFFFE00
FC000000
FC000000
FC000000
FC000000
FC000000
FC000000
FC000000
FC000000
FC000000
FC000000
FC000000
FC000000
FC000000
FC000000
FFFFFF80
FFFFFF80
FFFFFF80
FFFFFF80
FFFFFF80
FFFFFF80
ENDCHAR
STARTCHAR Igrave
ENCODING 204
SWIDTH 278 0
DWIDTH 18 0
BBX 12 57 0 0
BITMAP
FE00
7F00
3F00
1F80
0FC0
07C0
03E0
01E0
00F0
0000
0000
0000
03F0
03F0
03F0
03F0
03F0
03F0
03F0
03F0
03F0
03F0
03F0
03F0
03F0
03F0
03F0
03F0
03F0
03F0
03F0
03F0
03F0
03F0
03F0
03F0
03F0
03F0
03F0
03F0
03F0
03F0
03F0
03F0
03F0
03F0
03F0
03F0
03F0
03F0
03F0
03F0
03F0
03F0
03F0
03F0
03F0
ENDCHAR
STARTCHAR Iacute
ENCODING 205
SWIDTH 278 0
DWIDTH 18 0
BBX 13 57 4 0
BITMAP
03F8
07F0
0FE0
0FC0
1F80
3F00
3E00
7C00
F800
0000
0000
0000
3F00
3F00
3F00
3F00
3F00
3F00
3F00
3F00
3F00
3F00
3F00
3F00
3F00
3F00
3F00
3F00
3F00
3F00
3F00
3F00
3F00
3F00
3F00
3F00
3F00
3F00
3F00
3F00
3F00
3F00
3F00
3F00
3F00
3F00
3F00
3F00
3F00
3F00
3F00
3F00
3F00
3F00
3F00
3F00
3F00
ENDCHAR
STARTCHAR Icircumflex
ENCODING 206
SWIDTH 278 0
DWIDTH 18 0
BBX 18 57 0 0
BITMAP
03F000
07F800
0FFC00
0FFC00
1F3E00
3E1F00
3E1F00
7C0F80
F807C0
000000
000000
000000
03F000
03F000
03F000
03F000
03F000
03F000
03F000
03F000
03F000
03F000
03F000
03F000
03F000
03F000
03F000
03F000
03F000
03F000
03F000
03F000
03F000
03F000
03F000
03F000
03F000
03F000
03F000
03F000
03F000
03F000
03F000
03F000
03F000
03F000
03F000
03F000
03F000
03F000
03F000
03F000
03F000
03F000
03F000
03F000
03F000
ENDCHAR
STARTCHAR Idieresis
ENCODING 207
SWIDTH 278 0
DWIDTH 18 0
BBX 17 55 1 0
BITMAP
FC1F80
FC1F80
FC1F80
FC1F80
FC1F80
FC1F80
000000
000000
000000
000000
07E000
07E000
07E000
07E000
07E000
07E000
07E000
07E000
07E000
07E000
07E000
07E000
07E000
07E000
07E000
07E000
07E000
07E000
07E000
07E000
07E000
07E000
07E000
07E000
07E000
07E000
07E000
07E000
07E000
07E000
07E000
07E000
07E000
07E000
07E000
07E000
07E000
07E000
07E000
07E000
07E000
07E000
07E000
07E000
07E000
ENDCHAR
STARTCHAR Eth
ENCODING 208
SWIDTH 722 0
DWIDTH 46 0
BBX 40 45 1 0
BITMAP
0FFFFC0000
0FFFFFC000
0FFFFFF000
0FFFFFFC00
0FFFFFFF00
0FFFFFFF80
0FC001FFC0
0FC0003FE0
0FC0001FF0
0FC00007F8
0FC00003F8
0FC00001FC
0FC00001FC
0FC00000FE
0FC00000FE
0FC000007E
0FC000007F
0FC000003F
0FC000003F
FFFFFC003F
FFFFFC003F
FFFFFC003F
FFFFFC003F
0FC000003F
0FC000003F
0FC000003F
0FC000003F
0FC000003F
0FC000007F
0FC000007E
0FC000007E
0FC00000FE
0FC00000FC
0FC00001FC
0FC00003F8
0FC00007F8
0FC0000FF0
0FC0003FF0
0FC000FFE0
0FFFFFFFC0
0FFFFFFF00
0FFFFFFE00
0FFFFFF800
0FFFFFE000
0FFFFE0000
ENDCHAR
STARTCHAR Ntilde
ENCODING 209
SWIDTH 722 0
DWIDTH 46 0
BBX 35 56 6 0
BITMAP
003E007000
00FF807000
00FFF0E000
01FFFFE000
01C3FFC000
03807FC000
03801F0000
0000000000
0000000000
0000000000
0000000000
FF800007E0
FF800007E0
FFC00007E0
FFC00007E0
FFE00007E0
FFE00007E0
FFF00007E0
FFF80007E0
FFF80007E0
FDFC0007E0
FCFC0007E0
FCFE0007E0
FC7E0007E0
FC7F0007E0
FC3F8007E0
FC3F8007E0
FC1FC007E0
FC0FC007E0
FC0FE007E0
FC07E007E0
FC07F007E0
FC03F807E0
FC03F807E0
FC01FC07E0
FC00FC07E0
FC00FE07E0
FC007E07E0
FC007F07E0
FC003F07E0
FC003F87E0
FC001FC7E0
FC000FC7E0
FC000FE7E0
FC0007E7E0
FC0007F7E0
FC0003F7E0
FC0003FFE0
FC0001FFE0
FC0001FFE0
FC0000FFE0
FC00007FE0
FC00007FE0
FC00003FE0
FC00003FE0
FC00001FE0
ENDCHAR
STARTCHAR Ograve
ENCODING 210
SWIDTH 778 0
DWIDTH 50 0
BBX 42 58 3 -1
BITMAP
0007F0000000
0003F8000000
0001F8000000
0000FC000000
00007E000000
00003E000000
00001F000000
00000F000000
000007800000
000000000000
000000000000
000000000000
0000FFC00000
0007FFF80000
001FFFFF0000
007FFFFF8000
00FFFFFFC000
01FFFFFFF000
03FF003FF800
07FC0007F800
0FF00003FC00
1FE00001FE00
1FC00000FE00
3F8000007F00
3F8000007F00
7F0000003F80
7F0000001F80
7E0000001F80
7E0000001FC0
FE0000000FC0
FC0000000FC0
FC0000000FC0
FC0000000FC0
FC0000000FC0
FC0000000FC0
FC0000000FC0
FC0000000FC0
FC0000000FC0
FC0000000FC0
FC0000000FC0
FE0000000FC0
7E0000001FC0
7E0000001F80
7F0000001F80
7F0000003F80
3F8000003F00
3F8000007F00
1FC00000FE00
1FE00001FE00
0FF00003FC00
07FC0007FC00
07FF001FF800
03FFFFFFF000
00FFFFFFE000
007FFFFF8000
003FFFFF0000
0007FFFC0000
0000FFC00000
ENDCHAR
STARTCHAR Oacute
ENCODING 211
SWIDTH 778 0
DWIDTH 50 0
BBX 42 58 3 -1
BITMAP
000001FC0000
000003F80000
000007F00000
000007E00000
00000FC00000
00001F800000
00001F000000
00003E000000
00007C000000
000000000000
000000000000
000000000000
0000FFC00000
0007FFF80000
001FFFFF0000
007FFFFF8000
00FFFFFFC000
01FFFFFFF000
03FF003FF800
07FC0007F800
0FF00003FC00
1FE00001FE00
1FC00000FE00
3F8000007F00
3F8000007F00
7F0000003F80
7F0000001F80
7E0000001F80
7E0000001FC0
FE0000000FC0
FC0000000FC0
FC0000000FC0
FC0000000FC0
FC0000000FC0
FC0000000FC0
FC0000000FC0
FC0000000FC0
FC0000000FC0
FC0000000FC0
FC0000000FC0
FE0000000FC0
7E0000001FC0
7E0000001F80
7F0000001F80
7F0000003F80
3F8000003F00
3F8000007F00
1FC00000FE00
1FE00001FE00
0FF00003FC00
07FC0007FC00
07FF001FF800
03FFFFFFF000
00FFFFFFE000
007FFFFF8000
003FFFFF0000
0007FFFC0000
0000FFC00000
ENDCHAR
STARTCHAR Ocircumflex
ENCODING 212
SWIDTH 778 0
DWIDTH 50 0
BBX 42 58 3 -1
BITMAP
00001F800000
00003FC00000
00007FE00000
00007FE00000
0000F9F00000
0001F0F80000
0001F0F80000
0003E07C0000
0007C03E0000
000000000000
000000000000
000000000000
0000FFC00000
0007FFF80000
001FFFFF0000
007FFFFF8000
00FFFFFFC000
01FFFFFFF000
03FF003FF800
07FC0007F800
0FF00003FC00
1FE00001FE00
1FC00000FE00
3F8000007F00
3F8000007F00
7F0000003F80
7F0000001F80
7E0000001F80
7E0000001FC0
FE0000000FC0
FC0000000FC0
FC0000000FC0
FC0000000FC0
FC0000000FC0
FC0000000FC0
FC0000000FC0
FC0000000FC0
FC0000000FC0
FC0000000FC0
FC0000000FC0
FE0000000FC0
7E0000001FC0
7E0000001F80
7F0000001F80
7F0000003F80
3F8000003F00
3F8000007F00
1FC00000FE00
1FE00001FE00
0FF00003FC00
07FC0007FC00
07FF001FF800
03FFFFFFF000
00FFFFFFE000
007FFFFF8000
003FFFFF0000
0007FFFC0000
0000FFC00000
ENDCHAR
STARTCHAR Otilde
ENCODING 213
SWIDTH 778 0
DWIDTH 50 0
BBX 42 57 3 -1
BITMAP
0001F0038000
0007FC038000
0007FF870000
000FFFFF0000
000E1FFE0000
001C03FE0000
001C00F80000
000000000000
000000000000
000000000000
000000000000
0000FFC00000
0007FFF80000
001FFFFF0000
007FFFFF8000
00FFFFFFC000
01FFFFFFF000
03FF003FF800
07FC0007F800
0FF00003FC00
1FE00001FE00
1FC00000FE00
3F8000007F00
3F8000007F00
7F0000003F80
7F0000001F80
7E0000001F80
7E0000001FC0
FE0000000FC0
FC0000000FC0
FC0000000FC0
FC0000000FC0
FC0000000FC0
FC0000000FC0
FC0000000FC0
FC0000000FC0
FC0000000FC0
FC0000000FC0
FC0000000FC0
FE0000000FC0
7E0000001FC0
7E0000001F80
7F0000001F80
7F0000003F80
3F8000003F00
3F8000007F00
1FC00000FE00
1FE00001FE00
0FF00003FC00
07FC0007FC00
07FF001FF800
03FFFFFFF000
00FFFFFFE000
007FFFFF8000
003FFFFF0000
0007FFFC0000
0000FFC00000
ENDCHAR
STARTCHAR Odieresis
ENCODING 214
SWIDTH 778 0
DWIDTH 50 0
BBX 42 56 3 -1
BITMAP
0003F07E0000
0003F07E0000
0003F07E0000
0003F07E0000
0003F07E0000
0003F07E0000
000000000000
000000000000
000000000000
000000000000
0000FFC00000
0007FFF80000
001FFFFF0000
007FFFFF8000
00FFFFFFC000
01FFFFFFF000
03FF003FF800
07FC0007F800
0FF00003FC00
1FE00001FE00
1FC00000FE00
3F8000007F00
3F8000007F00
7F0000003F80
7F0000001F80
7E0000001F80
7E0000001FC0
FE0000000FC0
FC0000000FC0
FC0000000FC0
FC0000000FC0
FC0000000FC0
FC0000000FC0
FC0000000FC0
FC0000000FC0
FC0000000FC0
FC0000000FC0
FC0000000FC0
FE0000000FC0
7E0000001FC0
7E0000001F80
7F0000001F80
7F0000003F80
3F8000003F00
3F8000007F00
1FC00000FE00
1FE00001FE00
0FF00003FC00
07FC0007FC00
07FF001FF800
03FFFFFFF000
00FFFFFFE000
007FFFFF8000
003FFFFF0000
0007FFFC0000
0000FFC00000
ENDCHAR
STARTCHAR multiply
ENCODING 215
SWIDTH 600 0
DWIDTH 38 0
BBX 30 30 4 1
BITMAP
08000040
1C0000E0
3E0001F0
7F0003F8
FF8007FC
7FC00FF8
3FE01FF0
1FF03FE0
0FF87FC0
07FCFF80
03FFFF00
01FFFE00
00FFFC00
007FF800
003FF000
003FF000
007FF800
00FFFC00
01FFFE00
03FFFF00
07FCFF80
0FF87FC0
1FF03FE0
3FE01FF0
7FC00FF8
FF8007FC
7F0003F8
3E0001F0
1C0000E0
08000040
ENDCHAR
STARTCHAR Oslash
ENCODING 216
SWIDTH 778 0
DWIDTH 50 0
BBX 42 47 3 -2
BITMAP
0000FFC00C00
0007FFF80E00
001FFFFE1E00
007FFFFFBC00
00FFFFFFF800
01FFFFFFF000
03FF003FF800
07FC000FF800
0FF00003FC00
1FE00003FE00
1FC00007FE00
3F80000FFF00
3F80001E7F00
7F00001C3F80
7F0000383F80
7E0000781F80
7E0000F01FC0
FE0001E01FC0
FC0001C00FC0
FC0003C00FC0
FC0007800FC0
FC000F000FC0
FC000E000FC0
FC001E000FC0
FC003C000FC0
FC0078000FC0
FC0070000FC0
FC00F0000FC0
FE01E0000FC0
7E03C0001FC0
7E0380001F80
7F0700001F80
7F0F00003F80
3F9E00003F00
3FDC00007F00
1FF80000FE00
1FF80001FE00
0FF00003FC00
07FC0007FC00
07FF001FF800
03FFFFFFF000
07FFFFFFE000
0F7FFFFF8000
0E3FFFFF0000
1E07FFFC0000
1C00FFC00000
080000000000
ENDCHAR
STARTCHAR Ugrave
ENCODING 217
SWIDTH 722 0
DWIDTH 46 0
BBX 34 58 6 -1
BITMAP
00FE000000
007F000000
003F000000
001F800000
000FC00000
0007C00000
0003E00000
0001E00000
0000F00000
0000000000
0000000000
0000000000
FC00000FC0
FC00000FC0
FC00000FC0
FC00000FC0
FC00000FC0
FC00000FC0
FC00000FC0
FC00000FC0
FC00000FC0
FC00000FC0
FC00000FC0
FC00000FC0
FC00000FC0
FC00000FC0
FC00000FC0
FC00000FC0
FC00000FC0
FC00000FC0
FC00000FC0
FC00000FC0
FC00000FC0
FC00000FC0
FC00000FC0
FC00000FC0
FC00000FC0
FC00000FC0
FC00000FC0
FC00000FC0
FC00000FC0
FC00000FC0
FC00000FC0
FE00001FC0
FE00001F80
7E00001F80
7E00001F80
7F00003F80
3F80007F00
3F80007F00
1FC000FE00
1FF003FE00
0FFFFFFC00
07FFFFF800
03FFFFF000
01FFFFE000
007FFF8000
000FFC0000
ENDCHAR
STARTCHAR Uacute
ENCODING 218
SWIDTH 722 0
DWIDTH 46 0
BBX 34 58 6 -1
BITMAP
00003F8000
00007F0000
0000FE0000
0000FC0000
0001F80000
0003F00000
0003E00000
0007C00000
000F800000
0000000000
0000000000
0000000000
FC00000FC0
FC00000FC0
FC00000FC0
FC00000FC0
FC00000FC0
FC00000FC0
FC00000FC0
FC00000FC0
FC00000FC0
FC00000FC0
FC00000FC0
FC00000FC0
FC00000FC0
FC00000FC0
FC00000FC0
FC00000FC0
FC00000FC0
FC00000FC0
FC00000FC0
FC00000FC0
FC00000FC0
FC00000FC0
FC00000FC0
FC00000FC0
FC00000FC0
FC00000FC0
FC00000FC0
FC00000FC0
FC00000FC0
FC00000FC0
FC00000FC0
FE00001FC0
FE00001F80
7E00001F80
7E00001F80
7F00003F80
3F80007F00
3F80007F00
1FC000FE00
1FF003FE00
0FFFFFFC00
07FFFFF800
03FFFFF000
01FFFFE000
007FFF8000
000FFC0000
ENDCHAR
STARTCHAR Ucircumflex
ENCODING 219
SWIDTH 722 0
DWIDTH 46 0
BBX 34 58 6 -1
BITMAP
0003F00000
0007F80000
000FFC0000
000FFC0000
001F3E0000
003E1F0000
003E1F0000
007C0F8000
00F807C000
0000000000
0000000000
0000000000
FC00000FC0
FC00000FC0
FC00000FC0
FC00000FC0
FC00000FC0
FC00000FC0
FC00000FC0
FC00000FC0
FC00000FC0
FC00000FC0
FC00000FC0
FC00000FC0
FC00000FC0
FC00000FC0
FC00000FC0
FC00000FC0
FC00000FC0
FC00000FC0
FC00000FC0
FC00000FC0
FC00000FC0
FC00000FC0
FC00000FC0
FC00000FC0
FC00000FC0
FC00000FC0
FC00000FC0
FC00000FC0
FC00000FC0
FC00000FC0
FC00000FC0
FE00001FC0
FE00001F80
7E00001F80
7E00001F80
7F00003F80
3F80007F00
3F80007F00
1FC000FE00
1FF003FE00
0FFFFFFC00
07FFFFF800
03FFFFF000
01FFFFE000
007FFF8000
000FFC0000
ENDCHAR
STARTCHAR Udieresis
ENCODING 220
SWIDTH 722 0
DWIDTH 46 0
BBX 34 56 6 -1
BITMAP
007E0FC000
007E0FC000
007E0FC000
007E0FC000
007E0FC000
007E0FC000
0000000000
0000000000
0000000000
0000000000
FC00000FC0
FC00000FC0
FC00000FC0
FC00000FC0
FC00000FC0
FC00000FC0
FC00000FC0
FC00000FC0
FC00000FC0
FC00000FC0
FC00000FC0
FC00000FC0
FC00000FC0
FC00000FC0
FC00000FC0
FC00000FC0
FC00000FC0
FC00000FC0
FC00000FC0
FC00000FC0
FC00000FC0
FC00000FC0
FC00000FC0
FC00000FC0
FC00000FC0
FC00000FC0
FC00000FC0
FC00000FC0
FC00000FC0
FC00000FC0
FC00000FC0
FE00001FC0
FE00001F80
7E00001F80
7E00001F80
7F00003F80
3F80007F00
3F80007F00
1FC000FE00
1FF003FE00
0FFFFFFC00
07FFFFF800
03FFFFF000
01FFFFE000
007FFF8000
000FFC0000
ENDCHAR
STARTCHAR Yacute
ENCODING 221
SWIDTH 667 0
DWIDTH 43 0
BBX 40 57 1 0
BITMAP
000007F000
00000FE000
00001FC000
00001F8000
00003F0000
00007E0000
00007C0000
0000F80000
0001F00000
0000000000
0000000000
0000000000
FE0000007F
7F000000FE
7F800001FE
3F800001FC
1FC00003F8
1FE00007F8
0FE00007F0
07F0000FE0
07F8000FE0
03F8001FC0
01FC003F80
01FC003F80
00FE007F00
007F00FE00
007F00FE00
003F81FC00
001FC3F800
001FC3F800
000FE7F000
0007F7E000
0007FFE000
0003FFC000
0001FF8000
0001FF8000
0000FF0000
00007E0000
00007E0000
00007E0000
00007E0000
00007E0000
00007E0000
00007E0000
00007E0000
00007E0000
00007E0000
00007E0000
00007E0000
00007E0000
00007E0000
00007E0000
00007E0000
00007E0000
00007E0000
00007E0000
00007E0000
ENDCHAR
STARTCHAR Thorn
ENCODING 222
SWIDTH 556 0
DWIDTH 36 0
BBX 28 45 5 0
BITMAP
FC000000
FC000000
FC000000
FC000000
FC000000
FC000000
FC000000
FFFF8000
FFFFF000
FFFFFC00
FFFFFF00
FFFFFF80
FFFFFF80
FC00FFC0
FC003FE0
FC000FE0
FC000FE0
FC0007E0
FC0007F0
FC0003F0
FC0003F0
FC0003F0
FC0007F0
FC0007E0
FC0007E0
FC000FE0
FC001FE0
FC007FC0
FFFFFF80
FFFFFF80
FFFFFF00
FFFFFC00
FFFFF000
FFFF8000
FC000000
FC000000
FC000000
FC000000
FC000000
FC000000
FC000000
FC000000
FC000000
FC000000
FC000000
ENDCHAR
STARTCHAR germandbls
ENCODING 223
SWIDTH 611 0
DWIDTH 39 0
BBX 30 49 5 0
BITMAP
001FE000
00FFFC00
03FFFE00
07FFFF80
0FFFFFC0
1FF03FC0
3FC00FE0
3F8007E0
7F0007F0
7F0003F0
7E0003F0
7E0003F0
FE0003F0
FC0003F0
FC0003F0
FC0003F0
FC0003F0
FC0007E0
FC000FE0
FC001FC0
FC007F80
FC0FFF00
FC0FFC00
FC0FFE00
FC0FFF80
FC0FFFC0
FC003FE0
FC0007F0
FC0003F8
FC0001F8
FC0001FC
FC0000FC
FC0000FC
FC0000FC
FC0000FC
FC0000FC
FC0000FC
FC0000FC
FC0000FC
FC0001FC
FC0001F8
FC0003F8
FC0007F0
FC301FF0
FC3FFFE0
FC3FFFC0
FC3FFF80
FC3FFE00
FC0FF000
ENDCHAR
STARTCHAR agrave
ENCODING 224
SWIDTH 556 0
DWIDTH 36 0
BBX 28 47 3 -1
BITMAP
03F80000
01FC0000
00FC0000
007E0000
003F0000
001F0000
000F8000
00078000
0003C000
00000000
00000000
00000000
00000000
003FF000
01FFFE00
07FFFF00
0FFFFF80
0FFFFFC0
0FC03FC0
0E000FE0
080007E0
000007E0
000003F0
000003F0
000003F0
000003F0
001FFFF0
01FFFFF0
07FFFFF0
0FFFFFF0
1FFFFFF0
3FE003F0
7F8003F0
7F0003F0
7E0003F0
FE0003F0
FC0003F0
FC0007F0
7E0007F0
7E000FF0
7F001FF0
7FC07FF0
3FFFFDF0
1FFFF9F0
0FFFF1F0
07FFE1F0
00FF0000
ENDCHAR
STARTCHAR aacute
ENCODING 225
SWIDTH 556 0
DWIDTH 36 0
BBX 28 47 3 -1
BITMAP
0000FE00
0001FC00
0003F800
0003F000
0007E000
000FC000
000F8000
001F0000
003E0000
00000000
00000000
00000000
00000000
003FF000
01FFFE00
07FFFF00
0FFFFF80
0FFFFFC0
0FC03FC0
0E000FE0
080007E0
000007E0
000003F0
000003F0
000003F0
000003F0
001FFFF0
01FFFFF0
07FFFFF0
0FFFFFF0
1FFFFFF0
3FE003F0
7F8003F0
7F0003F0
7E0003F0
FE0003F0
FC0003F0
FC0007F0
7E0007F0
7E000FF0
7F001FF0
7FC07FF0
3FFFFDF0
1FFFF9F0
0FFFF1F0
07FFE1F0
00FF0000
ENDCHAR
STARTCHAR acircumflex
ENCODING 226
SWIDTH 556 0
DWIDTH 36 0
BBX 28 47 3 -1
BITMAP
000FC000
001FE000
003FF000
003FF000
007CF800
00F87C00
00F87C00
01F03E00
03E01F00
00000000
00000000
00000000
00000000
003FF000
01FFFE00
07FFFF00
0FFFFF80
0FFFFFC0
0FC03FC0
0E000FE0
080007E0
000007E0
000003F0
000003F0
000003F0
000003F0
001FFFF0
01FFFFF0
07FFFFF0
0FFFFFF0
1FFFFFF0
3FE003F0
7F8003F0
7F0003F0
7E0003F0
FE0003F0
FC0003F0
FC0007F0
7E0007F0
7E000FF0
7F001FF0
7FC07FF0
3FFFFDF0
1FFFF9F0
0FFFF1F0
07FFE1F0
00FF0000
ENDCHAR
STARTCHAR atilde
ENCODING 227
SWIDTH 556 0
DWIDTH 36 0
BBX 28 46 3 -1
BITMAP
00F801C0
03FE01C0
03FFC380
07FFFF80
070FFF00
0E01FF00
0E007C00
00000000
00000000
00000000
00000000
00000000
003FF000
01FFFE00
07FFFF00
0FFFFF80
0FFFFFC0
0FC03FC0
0E000FE0
080007E0
000007E0
000003F0
000003F0
000003F0
000003F0
001FFFF0
01FFFFF0
07FFFFF0
0FFFFFF0
1FFFFFF0
3FE003F0
7F8003F0
7F0003F0
7E0003F0
FE0003F0
FC0003F0
FC0007F0
7E0007F0
7E000FF0
7F001FF0
7FC07FF0
3FFFFDF0
1FFFF9F0
0FFFF1F0
07FFE1F0
00FF0000
ENDCHAR
STARTCHAR adieresis
ENCODING 228
SWIDTH 556 0
DWIDTH 36 0
BBX 28 45 3 -1
BITMAP
01F83F00
01F83F00
01F83F00
01F83F00
01F83F00
01F83F00
00000000
00000000
00000000
00000000
00000000
003FF000
01FFFE00
07FFFF00
0FFFFF80
0FFFFFC0
0FC03FC0
0E000FE0
080007E0
000007E0
000003F0
000003F0
000003F0
000003F0
001FFFF0
01FFFFF0
07FFFFF0
0FFFFFF0
1FFFFFF0
3FE003F0
7F8003F0
7F0003F0
7E0003F0
FE0003F0
FC0003F0
FC0007F0
7E0007F0
7E000FF0
7F001FF0
7FC07FF0
3FFFFDF0
1FFFF9F0
0FFFF1F0
07FFE1F0
00FF0000
ENDCHAR
STARTCHAR aring
ENCODING 229
SWIDTH 556 0
DWIDTH 36 0
BBX 28 50 3 -1
BITMAP
000F8000
003FE000
007FF000
00707000
00E03800
00E03800
00E03800
00E03800
00E03800
00707000
007FF000
003FE000
000F8000
00000000
00000000
00000000
003FF000
01FFFE00
07FFFF00
0FFFFF80
0FFFFFC0
0FC03FC0
0E000FE0
080007E0
000007E0
000003F0
000003F0
000003F0
000003F0
001FFFF0
01FFFFF0
07FFFFF0
0FFFFFF0
1FFFFFF0
3FE003F0
7F8003F0
7F0003F0
7E0003F0
FE0003F0
FC0003F0
FC0007F0
7E0007F0
7E000FF0
7F001FF0
7FC07FF0
3FFFFDF0
1FFFF9F0
0FFFF1F0
07FFE1F0
00FF0000
ENDCHAR
STARTCHAR ae
ENCODING 230
SWIDTH 889 0
DWIDTH 57 0
BBX 52 34 2 -1
BITMAP
001FE0003FC000
00FFFC01FFF000
07FFFF07FFFC00
0FFFFF8FFFFE00
0FFFFFDFFFFF00
07C03FDFC07F80
06000FFF003F80
040007FE001FC0
000003FC000FC0
000003FC0007E0
000001F80007E0
000001F80007E0
000001F80003E0
003FFFF80003E0
01FFFFFFFFFFF0
07FFFFFFFFFFF0
1FFFFFFFFFFFF0
3FFC01FFFFFFF0
3FC001F8000000
7F0001F8000000
7E0001F8000000
7E0003F8000000
FE0003FC000000
FC0003FC000000
7E0007FE000000
7E000FFF000000
7E001FFF800100
7F003FBFC00300
3FC0FF3FF01F00
1FFFFF1FFFFF00
0FFFFE0FFFFF00
07FFFC07FFFF00
01FFF001FFFE00
007F80003FF000
ENDCHAR
STARTCHAR ccedilla
ENCODING 231
SWIDTH 444 0
DWIDTH 28 0
BBX 24 47 2 -14
BITMAP
000FF8
007FFF
01FFFF
03FFFF
07FFFF
0FF806
1FE000
3FC000
3F8000
7F0000
7F0000
7E0000
FE0000
FC0000
FC0000
FC0000
FC0000
FC0000
FC0000
FC0000
FC0000
7E0000
7E0000
7E0000
3F0000
3F8000
1FC000
1FE001
0FF807
07FFFF
03FFFF
00FFFF
003FFF
0007FC
000700
000E00
001C00
001FE0
003FF0
0011F8
0000F8
000078
0000F8
0080F8
00FFF0
00FFE0
003F80
ENDCHAR
STARTCHAR egrave
ENCODING 232
SWIDTH 556 0
DWIDTH 36 0
BBX 29 47 3 -1
BITMAP
03F80000
01FC0000
00FC0000
007E0000
003F0000
001F0000
000F8000
00078000
0003C000
00000000
00000000
00000000
00000000
001FE000
00FFFC00
01FFFF00
07FFFF80
0FFFFFC0
1FE03FC0
1FC00FE0
3F8007E0
3F0003F0
7E0003F0
7E0001F0
7C0001F8
FC0001F8
FC0001F8
FFFFFFF8
FFFFFFF8
FFFFFFF8
FFFFFFF8
FC000000
FC000000
FC000000
FC000000
7E000000
7E000000
7F000000
3F800000
3FC00020
1FE000E0
0FF807E0
0FFFFFE0
07FFFFE0
01FFFFE0
007FFFC0
000FFC00
ENDCHAR
STARTCHAR eacute
ENCODING 233
SWIDTH 556 0
DWIDTH 36 0
BBX 29 47 3 -1
BITMAP
0000FE00
0001FC00
0003F800
0003F000
0007E000
000FC000
000F8000
001F0000
003E0000
00000000
00000000
00000000
00000000
001FE000
00FFFC00
01FFFF00
07FFFF80
0FFFFFC0
1FE03FC0
1FC00FE0
3F8007E0
3F0003F0
7E0003F0
7E0001F0
7C0001F8
FC0001F8
FC0001F8
FFFFFFF8
FFFFFFF8
FFFFFFF8
FFFFFFF8
FC000000
FC000000
FC000000
FC000000
7E000000
7E000000
7F000000
3F800000
3FC00020
1FE000E0
0FF807E0
0FFFFFE0
07FFFFE0
01FFFFE0
007FFFC0
000FFC00
ENDCHAR
STARTCHAR ecircumflex
ENCODING 234
SWIDTH 556 0
DWIDTH 36 0
BBX 29 47 3 -1
BITMAP
000FC000
001FE000
003FF000
003FF000
007CF800
00F87C00
00F87C00
01F03E00
03E01F00
00000000
00000000
00000000
00000000
001FE000
00FFFC00
01FFFF00
07FFFF80
0FFFFFC0
1FE03FC0
1FC00FE0
3F8007E0
3F0003F0
7E0003F0
7E0001F0
7C0001F8
FC0001F8
FC0001F8
FFFFFFF8
FFFFFFF8
FFFFFFF8
FFFFFFF8
FC000000
FC000000
FC000000
FC000000
7E000000
7E000000
7F000000
3F800000
3FC00020
1FE000E0
0FF807E0
0FFFFFE0
07FFFFE0
01FFFFE0
007FFFC0
000FFC00
ENDCHAR
STARTCHAR edieresis
ENCODING 235
SWIDTH 556 0
DWIDTH 36 0
BBX 29 45 3 -1
BITMAP
01F83F00
01F83F00
01F83F00
01F83F00
01F83F00
01F83F00
00000000
00000000
00000000
00000000
00000000
001FE000
00FFFC00
01FFFF00
07FFFF80
0FFFFFC0
1FE03FC0
1FC00FE0
3F8007E0
3F0003F0
7E0003F0
7E0001F0
7C0001F8
FC0001F8
FC0001F8
FFFFFFF8
FFFFFFF8
FFFFFFF8
FFFFFFF8
FC000000
FC000000
FC000000
FC000000
7E000000
7E000000
7F000000
3F800000
3FC00020
1FE000E0
0FF807E0
0FFFFFE0
07FFFFE0
01FFFFE0
007FFFC0
000FFC00
ENDCHAR
STARTCHAR igrave
ENCODING 236
SWIDTH 278 0
DWIDTH 18 0
BBX 12 46 0 0
BITMAP
FE00
7F00
3F00
1F80
0FC0
07C0
03E0
01E0
00F0
0000
0000
0000
0000
03F0
03F0
03F0
03F0
03F0
03F0
03F0
03F0
03F0
03F0
03F0
03F0
03F0
03F0
03F0
03F0
03F0
03F0
03F0
03F0
03F0
03F0
03F0
03F0
03F0
03F0
03F0
03F0
03F0
03F0
03F0
03F0
03F0
ENDCHAR
STARTCHAR iacute
ENCODING 237
SWIDTH 278 0
DWIDTH 18 0
BBX 13 46 4 0
BITMAP
03F8
07F0
0FE0
0FC0
1F80
3F00
3E00
7C00
F800
0000
0000
0000
0000
3F00
3F00
3F00
3F00
3F00
3F00
3F00
3F00
3F00
3F00
3F00
3F00
3F00
3F00
3F00
3F00
3F00
3F00
3F00
3F00
3F00
3F00
3F00
3F00
3F00
3F00
3F00
3F00
3F00
3F00
3F00
3F00
3F00
ENDCHAR
STARTCHAR icircumflex
ENCODING 238
SWIDTH 278 0
DWIDTH 18 0
BBX 18 46 0 0
BITMAP
03F000
07F800
0FFC00
0FFC00
1F3E00
3E1F00
3E1F00
7C0F80
F807C0
000000
000000
000000
000000
03F000
03F000
03F000
03F000
03F000
03F000
03F000
03F000
03F000
03F000
03F000
03F000
03F000
03F000
03F000
03F000
03F000
03F000
03F000
03F000
03F000
03F000
03F000
03F000
03F000
03F000
03F000
03F000
03F000
03F000
03F000
03F000
03F000
ENDCHAR
STARTCHAR idieresis
ENCODING 239
SWIDTH 278 0
DWIDTH 18 0
BBX 17 44 1 0
BITMAP
FC1F80
FC1F80
FC1F80
FC1F80
FC1F80
FC1F80
000000
000000
000000
000000
000000
07E000
07E000
07E000
07E000
07E000
07E000
07E000
07E000
07E000
07E000
07E000
07E000
07E000
07E000
07E000
07E000
07E000
07E000
07E000
07E000
07E000
07E000
07E000
07E000
07E000
07E000
07E000
07E000
07E000
07E000
07E000
07E000
07E000
ENDCHAR
STARTCHAR eth
ENCODING 240
SWIDTH 611 0
DWIDTH 39 0
BBX 33 50 3 -1
BITMAP
0180018000
03E007C000
0FF80FC000
1FFE3FE000
03FFFF8000
00FFFE0000
003FFC0000
003FF80000
007FFC0000
01FFFE0000
07FCFF0000
0FF07F8000
07C03FC000
03801FE000
00000FF000
000007F000
000FF7F800
007FFFF800
01FFFFFC00
03FFFFFC00
07FFFFFE00
0FF80FFE00
1FE003FF00
3FC001FF00
3F8000FF00
7F00007F00
7F00007F80
7E00003F80
FE00003F80
FC00003F80
FC00001F80
FC00001F80
FC00001F80
FC00001F80
FC00001F80
FC00001F80
FC00003F80
7E00003F80
7E00003F00
7E00007F00
3F00007F00
3F8000FE00
1FC001FC00
1FE003FC00
0FF80FF800
07FFFFF000
03FFFFE000
00FFFF8000
007FFF0000
000FF80000
ENDCHAR
STARTCHAR ntilde
ENCODING 241
SWIDTH 611 0
DWIDTH 39 0
BBX 29 45 5 0
BITMAP
00F801C0
03FE01C0
03FFC380
07FFFF80
070FFF00
0E01FF00
0E007C00
00000000
00000000
00000000
00000000
00000000
FC07F800
FC3FFE00
FC7FFF80
FCFFFFC0
FDFFFFE0
FFF01FE0
FFC00FF0
FF8007F0
FF0003F0
FF0003F8
FE0003F8
FE0001F8
FE0001F8
FC0001F8
FC0001F8
FC0001F8
FC0001F8
FC0001F8
FC0001F8
FC0001F8
FC0001F8
FC0001F8
FC0001F8
FC0001F8
FC0001F8
FC0001F8
FC0001F8
FC0001F8
FC0001F8
FC0001F8
FC0001F8
FC0001F8
FC0001F8
ENDCHAR
STARTCHAR ograve
ENCODING 242
SWIDTH 611 0
DWIDTH 39 0
BBX 33 47 3 -1
BITMAP
00FE000000
007F000000
003F000000
001F800000
000FC00000
0007C00000
0003E00000
0001E00000
0000F00000
0000000000
0000000000
0000000000
0000000000
000FF80000
007FFF0000
01FFFF8000
03FFFFE000
07FFFFF000
0FF80FF800
1FE003FC00
3FC001FC00
3F8000FE00
7F00007E00
7F00007F00
7E00003F00
FE00003F00
FC00003F80
FC00001F80
FC00001F80
FC00001F80
FC00001F80
FC00001F80
FC00001F80
FC00003F00
7E00003F00
7E00003F00
7E00007F00
3F00007E00
3F8000FE00
1FC001FC00
1FE003F800
0FF80FF800
07FFFFF000
03FFFFE000
00FFFF8000
007FFE0000
000FF80000
ENDCHAR
STARTCHAR oacute
ENCODING 243
SWIDTH 611 0
DWIDTH 39 0
BBX 33 47 3 -1
BITMAP
00003F8000
00007F0000
0000FE0000
0000FC0000
0001F80000
0003F00000
0003E00000
0007C00000
000F800000
0000000000
0000000000
0000000000
0000000000
000FF80000
007FFF0000
01FFFF8000
03FFFFE000
07FFFFF000
0FF80FF800
1FE003FC00
3FC001FC00
3F8000FE00
7F00007E00
7F00007F00
7E00003F00
FE00003F00
FC00003F80
FC00001F80
FC00001F80
FC00001F80
FC00001F80
FC00001F80
FC00001F80
FC00003F00
7E00003F00
7E00003F00
7E00007F00
3F00007E00
3F8000FE00
1FC001FC00
1FE003F800
0FF80FF800
07FFFFF000
03FFFFE000
00FFFF8000
007FFE0000
000FF80000
ENDCHAR
STARTCHAR ocircumflex
ENCODING 244
SWIDTH 611 0
DWIDTH 39 0
BBX 33 47 3 -1
BITMAP
0003F00000
0007F80000
000FFC0000
000FFC0000
001F3E0000
003E1F0000
003E1F0000
007C0F8000
00F807C000
0000000000
0000000000
0000000000
0000000000
000FF80000
007FFF0000
01FFFF8000
03FFFFE000
07FFFFF000
0FF80FF800
1FE003FC00
3FC001FC00
3F8000FE00
7F00007E00
7F00007F00
7E00003F00
FE00003F00
FC00003F80
FC00001F80
FC00001F80
FC00001F80
FC00001F80
FC00001F80
FC00001F80
FC00003F00
7E00003F00
7E00003F00
7E00007F00
3F00007E00
3F8000FE00
1FC001FC00
1FE003F800
0FF80FF800
07FFFFF000
03FFFFE000
00FFFF8000
007FFE0000
000FF80000
ENDCHAR
STARTCHAR otilde
ENCODING 245
SWIDTH 611 0
DWIDTH 39 0
BBX 33 46 3 -1
BITMAP
003E007000
00FF807000
00FFF0E000
01FFFFE000
01C3FFC000
03807FC000
03801F0000
0000000000
0000000000
0000000000
0000000000
0000000000
000FF80000
007FFF0000
01FFFF8000
03FFFFE000
07FFFFF000
0FF80FF800
1FE003FC00
3FC001FC00
3F8000FE00
7F00007E00
7F00007F00
7E00003F00
FE00003F00
FC00003F80
FC00001F80
FC00001F80
FC00001F80
FC00001F80
FC00001F80
FC00001F80
FC00003F00
7E00003F00
7E00003F00
7E00007F00
3F00007E00
3F8000FE00
1FC001FC00
1FE003F800
0FF80FF800
07FFFFF000
03FFFFE000
00FFFF8000
007FFE0000
000FF80000
ENDCHAR
STARTCHAR odieresis
ENCODING 246
SWIDTH 611 0
DWIDTH 39 0
BBX 33 45 3 -1
BITMAP
007E0FC000
007E0FC000
007E0FC000
007E0FC000
007E0FC000
007E0FC000
0000000000
0000000000
0000000000
0000000000
0000000000
000FF80000
007FFF0000
01FFFF8000
03FFFFE000
07FFFFF000
0FF80FF800
1FE003FC00
3FC001FC00
3F8000FE00
7F00007E00
7F00007F00
7E00003F00
FE00003F00
FC00003F80
FC00001F80
FC00001F80
FC00001F80
FC00001F80
FC00001F80
FC00001F80
FC00003F00
7E00003F00
7E00003F00
7E00007F00
3F00007E00
3F8000FE00
1FC001FC00
1FE003F800
0FF80FF800
07FFFFF000
03FFFFE000
00FFFF8000
007FFE0000
000FF80000
ENDCHAR
STARTCHAR divide
ENCODING 247
SWIDTH 600 0
DWIDTH 38 0
BBX 32 36 3 -2
BITMAP
0003C000
000FE000
000FF000
001FF800
001FF800
001FF800
001FF800
000FF000
0007E000
00038000
00000000
00000000
00000000
00000000
00000000
FFFFFFFF
FFFFFFFF
FFFFFFFF
FFFFFFFF
FFFFFFFF
FFFFFFFF
00000000
00000000
00000000
00000000
00000000
00038000
0007E000
000FF000
001FF800
001FF800
001FF800
001FF800
000FF000
000FE000
0003C000
ENDCHAR
STARTCHAR oslash
ENCODING 248
SWIDTH 611 0
DWIDTH 39 0
BBX 33 36 3 -2
BITMAP
0000000400
000FF80E00
007FFF1C00
01FFFFFC00
03FFFFF800
07FFFFF000
0FF80FF800
1FE003FC00
3FC003FC00
3F8003FE00
7F00077E00
7F000E7F00
7E001C3F00
FE00383F00
FC00383F80
FC00701F80
FC00E01F80
FC01C01F80
FC03801F80
FC07801F80
FC07001F80
FC0E003F00
7E1C003F00
7E38003F00
7F78007F00
3F70007E00
3FE000FE00
1FC001FC00
1FE003F800
0FF80FF800
0FFFFFF000
0FFFFFE000
1CFFFF8000
387FFE0000
700FF80000
3000000000
ENDCHAR
STARTCHAR ugrave
ENCODING 249
SWIDTH 611 0
DWIDTH 39 0
BBX 29 47 5 -1
BITMAP
03F80000
01FC0000
00FC0000
007E0000
003F0000
001F0000
000F8000
00078000
0003C000
00000000
00000000
00000000
00000000
FC0001F8
FC0001F8
FC0001F8
FC0001F8
FC0001F8
FC0001F8
FC0001F8
FC0001F8
FC0001F8
FC0001F8
FC0001F8
FC0001F8
FC0001F8
FC0001F8
FC0001F8
FC0001F8
FC0001F8
FC0001F8
FC0001F8
FC0001F8
FC0001F8
FC0003F8
FC0003F8
FE0003F8
FE0007F8
7E000FF8
7F000FF8
7F803FF8
3FC07FF8
3FFFFDF8
1FFFF9F8
0FFFF1F8
03FFE1F8
00FF0000
ENDCHAR
STARTCHAR uacute
ENCODING 250
SWIDTH 611 0
DWIDTH 39 0
BBX 29 47 5 -1
BITMAP
0000FE00
0001FC00
0003F800
0003F000
0007E000
000FC000
000F8000
001F0000
003E0000
00000000
00000000
00000000
00000000
FC0001F8
FC0001F8
FC0001F8
FC0001F8
FC0001F8
FC0001F8
FC0001F8
FC0001F8
FC0001F8
FC0001F8
FC0001F8
FC0001F8
FC0001F8
FC0001F8
FC0001F8
FC0001F8
FC0001F8
FC0001F8
FC0001F8
FC0001F8
FC0001F8
FC0003F8
FC0003F8
FE0003F8
FE0007F8
7E000FF8
7F000FF8
7F803FF8
3FC07FF8
3FFFFDF8
1FFFF9F8
0FFFF1F8
03FFE1F8
00FF0000
ENDCHAR
STARTCHAR ucircumflex
ENCODING 251
SWIDTH 611 0
DWIDTH 39 0
BBX 29 47 5 -1
BITMAP
000FC000
001FE000
003FF000
003FF000
007CF800
00F87C00
00F87C00
01F03E00
03E01F00
00000000
00000000
00000000
00000000
FC0001F8
FC0001F8
FC0001F8
FC0001F8
FC0001F8
FC0001F8
FC0001F8
FC0001F8
FC0001F8
FC0001F8
FC0001F8
FC0001F8
FC0001F8
FC0001F8
FC0001F8
FC0001F8
FC0001F8
FC0001F8
FC0001F8
FC0001F8
FC0001F8
FC0003F8
FC0003F8
FE0003F8
FE0007F8
7E000FF8
7F000FF8
7F803FF8
3FC07FF8
3FFFFDF8
1FFFF9F8
0FFFF1F8
03FFE1F8
00FF0000
ENDCHAR
STARTCHAR udieresis
ENCODING 252
SWIDTH 611 0
DWIDTH 39 0
BBX 29 45 5 -1
BITMAP
01F83F00
01F83F00
01F83F00
01F83F00
01F83F00
01F83F00
00000000
00000000
00000000
00000000
00000000
FC0001F8
FC0001F8
FC0001F8
FC0001F8
FC0001F8
FC0001F8
FC0001F8
FC0001F8
FC0001F8
FC0001F8
FC0001F8
FC0001F8
FC0001F8
FC0001F8
FC0001F8
FC0001F8
FC0001F8
FC0001F8
FC0001F8
FC0001F8
FC0001F8
FC0003F8
FC0003F8
FE0003F8
FE0007F8
7E000FF8
7F000FF8
7F803FF8
3FC07FF8
3FFFFDF8
1FFFF9F8
0FFFF1F8
03FFE1F8
00FF0000
ENDCHAR
STARTCHAR yacute
ENCODING 253
SWIDTH 500 0
DWIDTH 32 0
BBX 30 60 1 -14
BITMAP
0000FE00
0001FC00
0003F800
0003F000
0007E000
000FC000
000F8000
001F0000
003E0000
00000000
00000000
00000000
00000000
FC0000FC
FC0000F8
7E0001F8
7E0001F8
7E0001F0
3F0003F0
3F0003F0
3F0003E0
1F8007E0
1F8007E0
0F8007C0
0FC00FC0
0FC00FC0
07C00F80
07E01F80
07E01F00
03E01F00
03F03F00
03F03E00
01F03E00
01F87E00
00F87C00
00F87C00
00FCFC00
007CF800
007CF800
007FF800
003FF000
003FF000
003FE000
001FE000
001FE000
000FC000
000FC000
000FC000
000F8000
001F8000
001F8000
003F0000
003F0000
007E0000
01FE0000
3FFC0000
3FF80000
3FF00000
3FE00000
3F800000
ENDCHAR
STARTCHAR thorn
ENCODING 254
SWIDTH 611 0
DWIDTH 39 0
BBX 31 61 5 -13
BITMAP
FC000000
FC000000
FC000000
FC000000
FC000000
FC000000
FC000000
FC000000
FC000000
FC000000
FC000000
FC000000
FC000000
FC000000
FC000000
FC0FF800
FC3FFE00
FC7FFF80
FDFFFFC0
FDFFFFE0
FFF01FF0
FFC007F0
FF8003F8
FF8001F8
FF0001FC
FE0000FC
FE0000FC
FE0000FC
FC0000FC
FC00007E
FC00007E
FC00007E
FC00007E
FC00007E
FC0000FC
FC0000FC
FE0000FC
FE0000FC
FE0001FC
FF0001F8
FF0003F8
FF8007F8
FFC00FF0
FFF01FE0
FDFFFFE0
FDFFFFC0
FC7FFF80
FC3FFE00
FC07F800
FC000000
FC000000
FC000000
FC000000
FC000000
FC000000
FC000000
FC000000
FC000000
FC000000
FC000000
FC000000
ENDCHAR
STARTCHAR ydieresis
ENCODING 255
SWIDTH 500 0
DWIDTH 32 0
BBX 30 58 1 -14
BITMAP
01F83F00
01F83F00
01F83F00
01F83F00
01F83F00
01F83F00
00000000
00000000
00000000
00000000
00000000
FC0000FC
FC0000F8
7E0001F8
7E0001F8
7E0001F0
3F0003F0
3F0003F0
3F0003E0
1F8007E0
1F8007E0
0F8007C0
0FC00FC0
0FC00FC0
07C00F80
07E01F80
07E01F00
03E01F00
03F03F00
03F03E00
01F03E00
01F87E00
00F87C00
00F87C00
00FCFC00
007CF800
007CF800
007FF800
003FF000
003FF000
003FE000
001FE000
001FE000
000FC000
000FC000
000FC000
000F8000
001F8000
001F8000
003F0000
003F0000
007E0000
01FE0000
3FFC0000
3FF80000
3FF00000
3FE00000
3F800000
ENDCHAR
STARTCHAR .notdef
ENCODING -1
SWIDTH 500 0
DWIDTH 32 0
BBX 26 33 3 0
BITMAP
FFFFFFC0
80000040
80000040
80000040
80000040
80000040
80000040
80000040
80000040
80000040
80000040
80000040
80000040
80000040
80000040
80000040
80000040
80000040
80000040
80000040
80000040
80000040
80000040
80000040
80000040
80000040
80000040
80000040
80000040
80000040
80000040
80000040
FFFFFFC0
ENDCHAR
STARTCHAR quoteright
ENCODING -1
SWIDTH 278 0
DWIDTH 18 0
BBX 11 16 3 29
BITMAP
0FE0
0FE0
1FC0
1FC0
1FC0
1F80
3F80
3F80
3F00
3F00
7E00
7E00
7E00
7C00
FC00
FC00
ENDCHAR
STARTCHAR quoteleft
ENCODING -1
SWIDTH 278 0
DWIDTH 18 0
BBX 11 16 4 29
BITMAP
07E0
0FC0
0FC0
0FC0
1FC0
1F80
1F80
3F80
3F80
3F00
7F00
7F00
7F00
FE00
FE00
FE00
ENDCHAR
STARTCHAR fraction.dup2
ENCODING -1
SWIDTH 167 0
DWIDTH 11 0
BBX 33 47 -11 -1
BITMAP
0000000F80
0000001F00
0000003E00
0000003E00
0000007C00
0000007800
000000F800
000000F000
000001F000
000003E000
000003C000
000007C000
0000078000
00000F8000
00001F0000
00001E0000
00003E0000
00003C0000
00007C0000
0000F80000
0000F00000
0001F00000
0001E00000
0003E00000
0007C00000
0007800000
000F800000
000F000000
001F000000
003E000000
003C000000
007C000000
0078000000
00F8000000
01F0000000
01E0000000
03E0000000
03C0000000
07C0000000
0F80000000
0F00000000
1F00000000
1E00000000
3E00000000
7C00000000
7C00000000
F800000000
ENDCHAR
STARTCHAR florin
ENCODING -1
SWIDTH 556 0
DWIDTH 36 0
BBX 32 59 2 -14
BITMAP
000001FF
000007FF
00000FFF
00001FFE
00003FFE
00003FC2
00007F00
00007E00
00007E00
0000FC00
0000FC00
0000FC00
0000FC00
0001F800
0001F800
0001F800
0001F800
0001F800
0003F000
01FFFFF0
01FFFFF0
01FFFFF0
01FFFFF0
0203E000
0007E000
0007E000
0007E000
0007E000
0007E000
000FC000
000FC000
000FC000
000FC000
000FC000
001F8000
001F8000
001F8000
001F8000
001F8000
003F0000
003F0000
003F0000
003F0000
003F0000
007E0000
007E0000
007E0000
007E0000
007E0000
00FC0000
00FC0000
00FC0000
01FC0000
47F80000
7FF80000
7FF00000
7FE00000
7FC00000
FF000000
ENDCHAR
STARTCHAR quotedblleft
ENCODING -1
SWIDTH 556 0
DWIDTH 36 0
BBX 24 16 6 29
BITMAP
03F03F
07E07E
07E07E
07E07E
0FE0FE
0FC0FC
0FC0FC
1FC1FC
1FC1FC
1F81F8
3F83F8
3F83F8
3F83F8
7F07F0
7F07F0
FF07F0
ENDCHAR
STARTCHAR guilsinglleft
ENCODING -1
SWIDTH 278 0
DWIDTH 18 0
BBX 15 25 1 5
BITMAP
00FE
00F8
01F8
03F0
03E0
07E0
0FC0
0F80
1F80
3F00
7E00
7E00
FC00
7E00
7E00
3F00
1F80
0F80
0FC0
07E0
03E0
03F0
01F8
00F8
00FE
ENDCHAR
STARTCHAR guilsinglright
ENCODING -1
SWIDTH 278 0
DWIDTH 18 0
BBX 15 25 2 5
BITMAP
FE00
3E00
3F00
1F80
0F80
0FC0
07E0
03E0
03F0
01F8
00FC
00FC
007E
00FC
00FC
01F8
03F0
03E0
07E0
0FC0
0F80
1F80
3F00
3E00
FE00
ENDCHAR
STARTCHAR fi
ENCODING -1
SWIDTH 667 0
DWIDTH 43 0
BBX 36 49 1 0
BITMAP
0001FE0000
000FFE0000
001FFE03F0
003FFE03F0
003FFE03F0
007F8003F0
007E0003F0
00FE0003F0
00FC0003F0
00FC000000
00FC000000
00FC000000
00FC000000
00FC000000
00FC000000
00FC000000
FFFFFE03F0
FFFFFE03F0
FFFFFE03F0
FFFFFE03F0
FFFFFE03F0
00FC0003F0
00FC0003F0
00FC0003F0
00FC0003F0
00FC0003F0
00FC0003F0
00FC0003F0
00FC0003F0
00FC0003F0
00FC0003F0
00FC0003F0
00FC0003F0
00FC0003F0
00FC0003F0
00FC0003F0
00FC0003F0
00FC0003F0
00FC0003F0
00FC0003F0
00FC0003F0
00FC0003F0
00FC0003F0
00FC0003F0
00FC0003F0
00FC0003F0
00FC0003F0
00FC0003F0
00FC0003F0
ENDCHAR
STARTCHAR fl
ENCODING -1
SWIDTH 667 0
DWIDTH 43 0
BBX 36 49 1 0
BITMAP
0001FE0000
000FFE03F0
001FFE03F0
003FFE03F0
003FFE03F0
007F8003F0
007E0003F0
00FE0003F0
00FC0003F0
00FC0003F0
00FC0003F0
00FC0003F0
00FC0003F0
00FC0003F0
00FC0003F0
00FC0003F0
FFFFFE03F0
FFFFFE03F0
FFFFFE03F0
FFFFFE03F0
FFFFFE03F0
00FC0003F0
00FC0003F0
00FC0003F0
00FC0003F0
00FC0003F0
00FC0003F0
00FC0003F0
00FC0003F0
00FC0003F0
00FC0003F0
00FC0003F0
00FC0003F0
00FC0003F0
00FC0003F0
00FC0003F0
00FC0003F0
00FC0003F0
00FC0003F0
00FC0003F0
00FC0003F0
00FC0003F0
00FC0003F0
00FC0003F0
00FC0003F0
00FC0003F0
00FC0003F0
00FC0003F0
00FC0003F0
ENDCHAR
STARTCHAR endash
ENCODING -1
SWIDTH 500 0
DWIDTH 32 0
BBX 32 4 0 15
BITMAP
FFFFFFFF
FFFFFFFF
FFFFFFFF
FFFFFFFF
ENDCHAR
STARTCHAR dagger
ENCODING -1
SWIDTH 556 0
DWIDTH 36 0
BBX 28 45 4 0
BITMAP
001F8000
001F8000
001F8000
001F8000
001F8000
001F8000
001F8000
001F8000
001F8000
001F8000
001F8000
001F8000
FFFFFFF0
FFFFFFF0
FFFFFFF0
FFFFFFF0
001F8000
001F8000
001F8000
001F8000
001F8000
001F8000
001F8000
001F8000
001F8000
001F8000
001F8000
001F8000
001F8000
001F8000
001F8000
001F8000
001F8000
001F8000
001F8000
001F8000
001F8000
001F8000
001F8000
001F8000
001F8000
001F8000
001F8000
001F8000
001F8000
ENDCHAR
STARTCHAR daggerdbl
ENCODING -1
SWIDTH 556 0
DWIDTH 36 0
BBX 28 45 4 0
BITMAP
001F8000
001F8000
001F8000
001F8000
001F8000
001F8000
001F8000
001F8000
001F8000
001F8000
FFFFFFF0
FFFFFFF0
FFFFFFF0
FFFFFFF0
001F8000
001F8000
001F8000
001F8000
001F8000
001F8000
001F8000
001F8000
001F8000
001F8000
001F8000
001F8000
001F8000
001F8000
001F8000
001F8000
FFFFFFF0
FFFFFFF0
FFFFFFF0
FFFFFFF0
001F8000
001F8000
001F8000
001F8000
001F8000
001F8000
001F8000
001F8000
001F8000
001F8000
001F8000
ENDCHAR
STARTCHAR bullet
ENCODING -1
SWIDTH 500 0
DWIDTH 32 0
BBX 22 22 5 11
BITMAP
00FC00
07FF80
0FFFC0
1FFFE0
3FFFF0
7FFFF8
7FFFF8
7FFFF8
FFFFFC
FFFFFC
FFFFFC
FFFFFC
FFFFFC
FFFFFC
7FFFF8
7FFFF8
7FFFF8
3FFFF0
1FFFE0
0FFFC0
07FF80
00FC00
ENDCHAR
STARTCHAR quotesinglbase
ENCODING -1
SWIDTH 278 0
DWIDTH 18 0
BBX 11 16 3 -9
BITMAP
0FE0
0FE0
1FC0
1FC0
1FC0
1F80
3F80
3F80
3F00
3F00
7F00
7E00
7E00
7E00
FC00
FC00
ENDCHAR
STARTCHAR quotedblbase
ENCODING -1
SWIDTH 556 0
DWIDTH 36 0
BBX 23 16 6 -9
BITMAP
0FE0FE
0FE0FE
1FC0FC
1FC1FC
1FC1FC
1F81F8
3F81F8
3F83F8
3F03F0
3F03F0
7F07F0
7E07E0
7E07E0
7E07E0
FC0FC0
FC0FC0
ENDCHAR
STARTCHAR quotedblright
ENCODING -1
SWIDTH 556 0
DWIDTH 36 0
BBX 23 16 6 29
BITMAP
0FE0FE
0FE0FE
1FC1FC
1FC1FC
1FC1FC
1F81F8
3F83F8
3F83F8
3F03F0
3F03F0
7F07F0
7E07E0
7E07E0
7E07E0
FC0FC0
FC0FC0
ENDCHAR
STARTCHAR ellipsis
ENCODING -1
SWIDTH 1000 0
DWIDTH 64 0
BBX 49 7 7 0
BITMAP
FE0007F0003F80
FE0007F0003F80
FE0007F0003F80
FE0007F0003F80
FE0007F0003F80
FE0007F0003F80
FE0007F0003F80
ENDCHAR
STARTCHAR perthousand
ENCODING -1
SWIDTH 1000 0
DWIDTH 64 0
BBX 65 47 0 -1
BITMAP
00000000F800000000
03FC0000F000000000
0FFF0001F000000000
1FFF8001E000000000
3FFFC003E000000000
3FFFC007C000000000
7F0FE007C000000000
7E07E00F8000000000
7E03E00F0000000000
FC03F01F0000000000
FC03F01E0000000000
FC03F03E0000000000
FC03F07C0000000000
FC03F0780000000000
FC03F0F80000000000
FC03F0F00000000000
FC03F1F00000000000
FC03F3E00000000000
FC03F3C00000000000
7E07E7C00000000000
7E07E7800000000000
7F0FEF87F8001FE000
3FFFDF1FFE007FF800
3FFFDE3FFF00FFFC00
1FFFBE7FFF81FFFE00
07FE3C7FFF81FFFE00
03FC7CFE1FC3F87F00
0000F8FC0FC3F03F00
0000F8FC07C3F01F00
0001F1F807E7E01F80
0001E1F807E7E01F80
0003E1F807E7E01F80
0003C1F807E7E01F80
0007C1F807E7E01F80
000F81F807E7E01F80
000F01F807E7E01F80
001F01F807E7E01F80
001E01F807E7E01F80
003E01F807E7E01F80
007C00FC0FC3F03F00
007800FC0FC3F03F00
00F800FE1FC3F87F00
00F0007FFF81FFFE00
01F0007FFF81FFFE00
03E0003FFF00FFFC00
03E0000FFC003FF000
07C00007F8001FE000
ENDCHAR
STARTCHAR circumflex
ENCODING -1
SWIDTH 278 0
DWIDTH 18 0
BBX 18 9 0 37
BITMAP
03F000
07F800
0FFC00
0FFC00
1F3E00
3E1F00
3E1F00
7C0F80
F807C0
ENDCHAR
STARTCHAR tilde
ENCODING -1
SWIDTH 278 0
DWIDTH 18 0
BBX 22 7 -2 38
BITMAP
0F801C
3FE01C
3FFC38
7FFFF8
70FFF0
E01FF0
E007C0
ENDCHAR
STARTCHAR breve
ENCODING -1
SWIDTH 278 0
DWIDTH 18 0
BBX 20 9 -1 38
BITMAP
E00070
E00070
F000E0
7801E0
7C03E0
3FFFC0
1FFF80
0FFF00
03F800
ENDCHAR
STARTCHAR dotaccent
ENCODING -1
SWIDTH 278 0
DWIDTH 18 0
BBX 6 6 6 38
BITMAP
FC
FC
FC
FC
FC
FC
ENDCHAR
STARTCHAR ring
ENCODING -1
SWIDTH 278 0
DWIDTH 18 0
BBX 13 13 2 36
BITMAP
0F80
3FE0
7FF0
7070
E038
E038
E038
E038
E038
7070
7FF0
3FE0
0F80
ENDCHAR
STARTCHAR hungarumlaut
ENCODING -1
SWIDTH 278 0
DWIDTH 18 0
BBX 25 9 -1 37
BITMAP
03F83F80
07F07F00
0FE0FE00
0FC0FC00
1F81F800
3F03F000
3E03E000
7C07C000
F80F8000
ENDCHAR
STARTCHAR ogonek
ENCODING -1
SWIDTH 278 0
DWIDTH 18 0
BBX 13 13 4 -13
BITMAP
03C0
0780
0E00
3E00
3C00
7800
F800
F800
F800
F838
FFE0
7FC0
3F00
ENDCHAR
STARTCHAR caron
ENCODING -1
SWIDTH 278 0
DWIDTH 18 0
BBX 18 9 0 37
BITMAP
F807C0
7C0F80
3E1F00
3E1F00
1F3E00
0FFC00
0FFC00
07F800
03F000
ENDCHAR
STARTCHAR emdash
ENCODING -1
SWIDTH 1000 0
DWIDTH 64 0
BBX 64 4 0 15
BITMAP
FFFFFFFFFFFFFFFF
FFFFFFFFFFFFFFFF
FFFFFFFFFFFFFFFF
FFFFFFFFFFFFFFFF
ENDCHAR
STARTCHAR OE
ENCODING -1
SWIDTH 944 0
DWIDTH 60 0
BBX 53 45 4 0
BITMAP
00001FFFFFFFF0
0001FFFFFFFFF0
000FFFFFFFFFF0
003FFFFFFFFFF0
007FFFFFFFFFF0
01FFFFFFFFFFF0
03FF800FC00000
07FC000FC00000
0FF8000FC00000
1FE0000FC00000
1FC0000FC00000
3F80000FC00000
3F00000FC00000
7F00000FC00000
7E00000FC00000
7E00000FC00000
FE00000FC00000
FC00000FC00000
FC00000FC00000
FC00000FFFFFE0
FC00000FFFFFE0
FC00000FFFFFE0
FC00000FFFFFE0
FC00000FFFFFE0
FC00000FFFFFE0
FC00000FC00000
FC00000FC00000
FE00000FC00000
7E00000FC00000
7E00000FC00000
7F00000FC00000
3F00000FC00000
3F80000FC00000
1FC0000FC00000
1FE0000FC00000
0FF0000FC00000
0FF8000FC00000
07FE000FC00000
03FFC00FC00000
01FFFFFFFFFFF8
007FFFFFFFFFF8
003FFFFFFFFFF8
000FFFFFFFFFF8
0001FFFFFFFFF8
00001FFFFFFFF8
ENDCHAR
STARTCHAR dotlessi
ENCODING -1
SWIDTH 278 0
DWIDTH 18 0
BBX 6 33 6 0
BITMAP
FC
FC
FC
FC
FC
FC
FC
FC
FC
FC
FC
FC
FC
FC
FC
FC
FC
FC
FC
FC
FC
FC
FC
FC
FC
FC
FC
FC
FC
FC
FC
FC
FC
ENDCHAR
STARTCHAR oe
ENCODING -1
SWIDTH 944 0
DWIDTH 60 0
BBX 55 34 3 -1
BITMAP
000FF8000FF800
007FFF003FFE00
01FFFFC0FFFF80
03FFFFE1FFFFC0
07FFFFF3FFFFE0
0FF81FFBF80FF0
1FE007FFE007F0
1FC003FFC003F8
3F8001FF8001F8
3F0000FF8000FC
7E0000FF0000FC
7E00007F0000FC
FE00007F00007C
FC00003F00007C
FC00003FFFFFFE
FC00003FFFFFFE
FC00003FFFFFFE
FC00003FFFFFFE
FC00003F000000
FC00003F000000
FC00003F000000
FC00007F000000
7E00007F800000
7E0000FF800000
7F0000FFC00000
3F0001FFE00000
3F8003FFF00020
1FC007FFF80060
0FF01FF3FE03E0
07FFFFE3FFFFE0
03FFFFC1FFFFE0
01FFFF807FFFE0
007FFE003FFFC0
000FF00007FE00
ENDCHAR
STARTCHAR trademark
ENCODING -1
SWIDTH 990 0
DWIDTH 63 0
BBX 56 27 4 18
BITMAP
FFFFF81FE0007F
FFFFF81FE000FF
FFFFF81FF000FF
FFFFF81FF001FF
00F8001FF801FF
00F8001FF801FF
00F8001FF803FF
00F8001F7C03FF
00F8001F7C03FF
00F8001F7E07DF
00F8001F3E07DF
00F8001F3E0F9F
00F8001F1F0F9F
00F8001F1F0F9F
00F8001F1F1F1F
00F8001F0F9F1F
00F8001F0F9F1F
00F8001F0FFE1F
00F8001F07FE1F
00F8001F07FE1F
00F8001F07FC1F
00F8001F03FC1F
00F8001F03F81F
00F8001F01F81F
00F8001F01F81F
00F8001F01F01F
00F8001F00F01F
ENDCHAR
STARTCHAR Ydieresis
ENCODING -1
SWIDTH 667 0
DWIDTH 42 0
BBX 40 55 1 0
BITMAP
000FC3F000
000FC3F000
000FC3F000
000FC3F000
000FC3F000
000FC3F000
0000000000
0000000000
0000000000
0000000000
FE0000007F
7F000000FE
7F800001FE
3F800001FC
1FC00003F8
1FE00007F8
0FE00007F0
07F0000FE0
07F8001FE0
03F8001FC0
01FC003F80
01FC003F80
00FE007F00
007F00FE00
007F00FE00
003F81FC00
001FC3F800
001FC3F800
000FE7F000
0007FFE000
0007FFE000
0003FFC000
0001FF8000
0001FF8000
0000FF0000
00007E0000
00007E0000
00007E0000
00007E0000
00007E0000
00007E0000
00007E0000
00007E0000
00007E0000
00007E0000
00007E0000
00007E0000
00007E0000
00007E0000
00007E0000
00007E0000
00007E0000
00007E0000
00007E0000
00007E0000
ENDCHAR
STARTCHAR Lslash
ENCODING -1
SWIDTH 500 0
DWIDTH 32 0
BBX 29 45 2 0
BITMAP
0FC00000
0FC00000
0FC00000
0FC00000
0FC00000
0FC00000
0FC00000
0FC00000
0FC00000
0FC00000
0FC00000
0FC00000
0FC00000
0FC00000
0FC00200
0FC00E00
0FC03E00
0FC07E00
0FC1FE00
0FC7F800
0FCFE000
0FFFC000
0FFF0000
0FFC0000
0FF80000
1FE00000
3FC00000
FFC00000
FFC00000
FFC00000
EFC00000
8FC00000
0FC00000
0FC00000
0FC00000
0FC00000
0FC00000
0FC00000
0FC00000
0FFFFFF8
0FFFFFF8
0FFFFFF8
0FFFFFF8
0FFFFFF8
0FFFFFF8
ENDCHAR
STARTCHAR lslash
ENCODING -1
SWIDTH 278 0
DWIDTH 18 0
BBX 14 48 2 0
BITMAP
0FC0
0FC0
0FC0
0FC0
0FC0
0FC0
0FC0
0FC0
0FC0
0FC0
0FC0
0FC0
0FC0
0FC0
0FC4
0FCC
0FDC
0FFC
0FFC
0FF8
0FE0
0FC0
1FC0
3FC0
FFC0
FFC0
FFC0
CFC0
8FC0
8FC0
0FC0
0FC0
0FC0
0FC0
0FC0
0FC0
0FC0
0FC0
0FC0
0FC0
0FC0
0FC0
0FC0
0FC0
0FC0
0FC0
0FC0
0FC0
ENDCHAR
STARTCHAR minus
ENCODING -1
SWIDTH 600 0
DWIDTH 38 0
BBX 32 6 3 13
BITMAP
FFFFFFFF
FFFFFFFF
FFFFFFFF
FFFFFFFF
FFFFFFFF
FFFFFFFF
ENDCHAR
STARTCHAR Scaron
ENCODING -1
SWIDTH 500 0
DWIDTH 32 0
BBX 25 58 3 -1
BITMAP
0F807C00
07C0F800
03E1F000
03E1F000
01F3E000
00FFC000
00FFC000
007F8000
003F0000
00000000
00000000
00000000
003FF000
01FFFE00
07FFFF00
1FFFFE00
3FFFFE00
3FFFFE00
7F800E00
7F000000
FE000000
FC000000
FC000000
FC000000
FC000000
FC000000
FE000000
FF000000
7F800000
7FE00000
3FF80000
3FFE0000
1FFF8000
07FFC000
03FFF000
00FFF800
003FFC00
000FFE00
0003FE00
0000FF00
00007F00
00003F80
00003F80
00001F80
00001F80
00001F80
00001F80
00001F80
00003F80
00007F00
4000FF00
7803FE00
7FFFFE00
7FFFFC00
FFFFF800
FFFFE000
7FFFC000
07FC0000
ENDCHAR
STARTCHAR scaron
ENCODING -1
SWIDTH 389 0
DWIDTH 25 0
BBX 20 47 2 -1
BITMAP
3E01F0
1F03E0
0F87C0
0F87C0
07CF80
03FF00
03FF00
01FE00
00FC00
000000
000000
000000
000000
01FF00
07FFE0
1FFFE0
3FFFE0
7FFFE0
7F00C0
FE0040
FC0000
FC0000
FC0000
FC0000
FE0000
FF0000
7FC000
7FF000
3FFC00
0FFF00
07FF80
01FFC0
007FE0
001FE0
000FF0
0007F0
0003F0
0003F0
0003F0
0003F0
8007E0
F01FE0
FFFFC0
FFFFC0
FFFF80
7FFE00
0FF800
ENDCHAR
STARTCHAR Euro
ENCODING -1
SWIDTH 556 0
DWIDTH 36 0
BBX 37 46 0 -1
BITMAP
000001FF80
00001FFFF8
00007FFFF8
0001FFFFF8
0003FFFFF8
0007FF83F0
000FF80010
001FE00000
003FC00000
003F800000
007F000000
00FE000000
00FE000000
00FC000000
01FC000000
01F8000000
01F8000000
7FFFFFFFC0
7FFFFFFFC0
7FFFFFFF80
83F0000000
03F0000000
03F0000000
03F0000000
03F0000000
03F0000000
7FFFFFFF00
7FFFFFFF00
7FFFFFFE00
83F8000000
01F8000000
01F8000000
01FC000000
00FC000000
00FE000000
007F000000
007F800000
003FC00000
001FE00000
001FF80010
000FFFC7F0
0003FFFFF0
0001FFFFF0
00007FFFF0
00001FFFF0
000003FF80
ENDCHAR
ENDFONT
